<?xml version="1.0" encoding="UTF-8" standalone="no"?>
<svg width="279px" height="196px" viewBox="0 0 279 196" version="1.1" xmlns="http://www.w3.org/2000/svg" xmlns:xlink="http://www.w3.org/1999/xlink">
    <!-- Generator: Sketch 3.8.3 (29802) - http://www.bohemiancoding.com/sketch -->
    <title>Group 2</title>
    <desc>Created with Sketch.</desc>
    <defs></defs>
    <g id="Page-1" stroke="none" stroke-width="1" fill="none" fill-rule="evenodd">
        <g id="Desktop" transform="translate(-603.000000, -707.000000)">
            <g id="Standards-aligned" transform="translate(42.000000, 593.000000)">
                <g id="Group-2" transform="translate(561.000000, 114.000000)">
                    <path d="M23.786346,50.0521283 C21.6531021,47.55664 18.638781,46.3089145 14.7432923,46.3089145 C11.5279682,46.3089145 9.18607258,46.9489815 7.71753515,48.2291346 C6.24899772,49.5092877 5.51474002,51.2350378 5.51474002,53.4064368 C5.51474002,54.5083407 5.7002367,55.4238795 6.07123563,56.1530807 C6.44223456,56.8822818 7.02191169,57.5061445 7.81028442,58.0246876 C8.59865715,58.5432306 9.59570181,58.9807447 10.8014483,59.337243 C12.0071949,59.6937414 13.4602522,60.0664386 15.160664,60.4553459 C16.9229089,60.8442531 18.5228178,61.2736651 19.9604386,61.7435948 C21.3980595,62.2135244 22.619246,62.8049787 23.6240347,63.5179753 C24.6288235,64.230972 25.4017263,65.1060002 25.9427664,66.1430863 C26.4838066,67.1801724 26.7543225,68.4603063 26.7543225,69.9835264 C26.7543225,71.5067466 26.4683485,72.8354932 25.8963918,73.9698061 C25.3244351,75.104119 24.5206162,76.0520662 23.4849108,76.8136763 C22.4492055,77.5752864 21.2125609,78.1505364 19.7749401,78.5394437 C18.3373192,78.928351 16.7374103,79.1228017 14.9751654,79.1228017 C9.84301356,79.1228017 5.49929959,77.4051537 1.94389318,73.9698061 L3.1960083,71.9766663 C4.58725429,73.4998864 6.28764054,74.7071013 8.29721808,75.5983471 C10.3067956,76.489593 12.5636719,76.9352092 15.0679147,76.9352092 C17.9431564,76.9352092 20.1923037,76.3842655 21.815424,75.2823616 C23.4385443,74.1804576 24.2500923,72.5114223 24.2500923,70.2752054 C24.2500923,69.1408926 24.0336795,68.1767411 23.6008474,67.3827221 C23.1680153,66.588703 22.526506,65.9000234 21.6763001,65.3166625 C20.8260942,64.7333016 19.7517593,64.2309705 18.453263,63.8096543 C17.1547667,63.3883381 15.6398772,62.9832325 13.9085488,62.5943252 C12.1463039,62.2054179 10.5927692,61.7922101 9.24789808,61.3546894 C7.90302696,60.9171688 6.77458881,60.3662251 5.86254978,59.7018418 C4.95051074,59.0374585 4.26262721,58.2353493 3.79887855,57.2954901 C3.33512989,56.3556308 3.10325903,55.1727223 3.10325903,53.7467289 C3.10325903,52.1910998 3.38923309,50.8137406 3.96118977,49.6146098 C4.53314645,48.415479 5.32923638,47.4027149 6.34948344,46.5762869 C7.36973049,45.749859 8.59091699,45.1259962 10.0130796,44.70468 C11.4352421,44.2833638 13.0119639,44.0727089 14.7432923,44.0727089 C16.8765361,44.0727089 18.7778771,44.4048955 20.4473723,45.0692788 C22.1168675,45.733662 23.631757,46.7464262 24.9920864,48.1076017 L23.786346,50.0521283 Z M55.8670162,46.5519803 L43.8096113,46.5519803 L43.8096113,78.8311227 L41.444505,78.8311227 L41.444505,46.5519803 L29.3871,46.5519803 L29.3871,44.3157747 L55.8670162,44.3157747 L55.8670162,46.5519803 Z M68.4703401,44.3157747 L70.510824,44.3157747 L84.4232143,78.8311227 L81.9189841,78.8311227 L77.3278953,67.4556418 L61.6068942,67.4556418 L57.0158054,78.8311227 L54.4652005,78.8311227 L68.4703401,44.3157747 Z M76.6786504,65.4138888 L69.4905821,47.329791 L62.1633898,65.4138888 L76.6786504,65.4138888 Z M92.2035762,48.9826386 L92.2035762,78.8311227 L89.8384699,78.8311227 L89.8384699,44.3157747 L91.6470806,44.3157747 L114.741649,74.6990036 L114.741649,44.3157747 L117.106755,44.3157747 L117.106755,78.8311227 L114.927147,78.8311227 L92.2035762,48.9826386 Z M126.092857,78.8311227 L126.092857,44.3157747 L137.037271,44.3157747 C139.634263,44.3157747 141.914327,44.769493 143.87753,45.6769433 C145.840732,46.5843937 147.471557,47.8159149 148.770053,49.371544 C150.06855,50.9271731 151.042407,52.7501486 151.691655,54.8405252 C152.340904,56.9309018 152.665523,59.1589829 152.665523,61.5248355 C152.665523,64.1499596 152.302258,66.5238788 151.575719,68.6466644 C150.849179,70.7694499 149.80576,72.5843233 148.445431,74.091339 C147.085102,75.5983547 145.438819,76.765059 143.506532,77.591487 C141.574246,78.4179149 139.417847,78.8311227 137.037271,78.8311227 L126.092857,78.8311227 Z M150.300416,61.5248355 C150.300416,59.3534366 150.006713,57.3522146 149.419298,55.5211095 C148.831883,53.6900044 147.973961,52.1100923 146.845506,50.7813258 C145.717051,49.4525593 144.333555,48.4154888 142.694976,47.6700832 C141.056398,46.9246776 139.170515,46.5519803 137.037271,46.5519803 L128.457964,46.5519803 L128.457964,76.594917 L137.037271,76.594917 C139.201431,76.594917 141.110501,76.2141177 142.764538,75.4525076 C144.418575,74.6908976 145.802071,73.6295207 146.915068,72.2683453 C148.028065,70.9071698 148.870529,69.3110535 149.442486,67.4799484 C150.014442,65.6488433 150.300416,63.6638255 150.300416,61.5248355 L150.300416,61.5248355 Z M168.746944,44.3157747 L170.787428,44.3157747 L184.699818,78.8311227 L182.195588,78.8311227 L177.604499,67.4556418 L161.883498,67.4556418 L157.29241,78.8311227 L154.741805,78.8311227 L168.746944,44.3157747 Z M176.955254,65.4138888 L169.767186,47.329791 L162.439994,65.4138888 L176.955254,65.4138888 Z M190.115074,78.8311227 L190.115074,44.3157747 L203.795591,44.3157747 C205.186837,44.3157747 206.469856,44.623655 207.644686,45.2394248 C208.819516,45.8551947 209.832018,46.6735081 210.682224,47.6943897 C211.53243,48.7152713 212.197127,49.8657714 212.676334,51.1459245 C213.155541,52.4260777 213.39514,53.7143137 213.39514,55.0106713 C213.39514,56.2746199 213.209644,57.498039 212.838645,58.6809653 C212.467646,59.8638916 211.942072,60.9252684 211.261907,61.8651277 C210.581743,62.8049869 209.762465,63.5827898 208.804052,64.1985597 C207.845638,64.8143295 206.79449,65.2194352 205.650576,65.4138888 L213.858887,78.8311227 L211.122783,78.8311227 L203.146346,65.8027942 L192.48018,65.8027942 L192.48018,78.8311227 L190.115074,78.8311227 Z M192.48018,63.5179753 L204.027464,63.5179753 C205.078628,63.5179753 206.037027,63.2749119 206.902692,62.7887778 C207.768356,62.3026438 208.510342,61.6625768 209.128674,60.8685578 C209.747006,60.0745388 210.218476,59.1671021 210.5431,58.1462205 C210.867724,57.1253389 211.030034,56.0801663 211.030034,55.0106713 C211.030034,53.9087673 210.836808,52.8473905 210.450351,51.8265089 C210.063894,50.8056273 209.53832,49.9062927 208.873614,49.1284781 C208.208907,48.3506636 207.436004,47.7268009 206.554882,47.2568712 C205.673759,46.7869416 204.723089,46.5519803 203.702842,46.5519803 L192.48018,46.5519803 L192.48018,63.5179753 Z M220.619007,78.8311227 L220.619007,44.3157747 L231.56342,44.3157747 C234.160413,44.3157747 236.440476,44.769493 238.403679,45.6769433 C240.366882,46.5843937 241.997707,47.8159149 243.296203,49.371544 C244.594699,50.9271731 245.568557,52.7501486 246.217805,54.8405252 C246.867053,56.9309018 247.191672,59.1589829 247.191672,61.5248355 C247.191672,64.1499596 246.828408,66.5238788 246.101868,68.6466644 C245.375329,70.7694499 244.33191,72.5843233 242.97158,74.091339 C241.611251,75.5983547 239.964968,76.765059 238.032682,77.591487 C236.100396,78.4179149 233.943997,78.8311227 231.56342,78.8311227 L220.619007,78.8311227 Z M244.826566,61.5248355 C244.826566,59.3534366 244.532863,57.3522146 243.945448,55.5211095 C243.358033,53.6900044 242.500111,52.1100923 241.371656,50.7813258 C240.2432,49.4525593 238.859704,48.4154888 237.221126,47.6700832 C235.582547,46.9246776 233.696664,46.5519803 231.56342,46.5519803 L222.984113,46.5519803 L222.984113,76.594917 L231.56342,76.594917 C233.727581,76.594917 235.636651,76.2141177 237.290688,75.4525076 C238.944725,74.6908976 240.328221,73.6295207 241.441218,72.2683453 C242.554214,70.9071698 243.396678,69.3110535 243.968635,67.4799484 C244.540592,65.6488433 244.826566,63.6638255 244.826566,61.5248355 L244.826566,61.5248355 Z M273.24364,50.0521283 C271.110396,47.55664 268.096075,46.3089145 264.200586,46.3089145 C260.985262,46.3089145 258.643367,46.9489815 257.174829,48.2291346 C255.706292,49.5092877 254.972034,51.2350378 254.972034,53.4064368 C254.972034,54.5083407 255.157531,55.4238795 255.52853,56.1530807 C255.899529,56.8822818 256.479206,57.5061445 257.267578,58.0246876 C258.055951,58.5432306 259.052996,58.9807447 260.258742,59.337243 C261.464489,59.6937414 262.917546,60.0664386 264.617958,60.4553459 C266.380203,60.8442531 267.980112,61.2736651 269.417733,61.7435948 C270.855354,62.2135244 272.07654,62.8049787 273.081329,63.5179753 C274.086118,64.230972 274.85902,65.1060002 275.40006,66.1430863 C275.941101,67.1801724 276.211617,68.4603063 276.211617,69.9835264 C276.211617,71.5067466 275.925643,72.8354932 275.353686,73.9698061 C274.781729,75.104119 273.97791,76.0520662 272.942205,76.8136763 C271.9065,77.5752864 270.669855,78.1505364 269.232234,78.5394437 C267.794613,78.928351 266.194704,79.1228017 264.432459,79.1228017 C259.300308,79.1228017 254.956594,77.4051537 251.401187,73.9698061 L252.653302,71.9766663 C254.044548,73.4998864 255.744935,74.7071013 257.754512,75.5983471 C259.76409,76.489593 262.020966,76.9352092 264.525209,76.9352092 C267.40045,76.9352092 269.649598,76.3842655 271.272718,75.2823616 C272.895838,74.1804576 273.707386,72.5114223 273.707386,70.2752054 C273.707386,69.1408926 273.490974,68.1767411 273.058141,67.3827221 C272.625309,66.588703 271.9838,65.9000234 271.133594,65.3166625 C270.283388,64.7333016 269.209053,64.2309705 267.910557,63.8096543 C266.612061,63.3883381 265.097171,62.9832325 263.365843,62.5943252 C261.603598,62.2054179 260.050063,61.7922101 258.705192,61.3546894 C257.360321,60.9171688 256.231883,60.3662251 255.319844,59.7018418 C254.407805,59.0374585 253.719921,58.2353493 253.256173,57.2954901 C252.792424,56.3556308 252.560553,55.1727223 252.560553,53.7467289 C252.560553,52.1910998 252.846527,50.8137406 253.418484,49.6146098 C253.99044,48.415479 254.78653,47.4027149 255.806777,46.5762869 C256.827025,45.749859 258.048211,45.1259962 259.470374,44.70468 C260.892536,44.2833638 262.469258,44.0727089 264.200586,44.0727089 C266.33383,44.0727089 268.235171,44.4048955 269.904666,45.0692788 C271.574162,45.733662 273.089051,46.7464262 274.44938,48.1076017 L273.24364,50.0521283 Z" id="Standards-Copy" fill="#24346D"></path>
                    <path d="M1.65578635,146.415507 C3.12494948,146.415507 4.15334825,146.291458 4.7410135,146.043355 C5.32867875,145.795253 5.72044971,145.439644 5.91633812,144.97652 L15.6127663,114.757786 L28.247506,114.757786 L37.2583282,144.9269 C37.650105,145.91931 38.9560082,146.415507 41.1760769,146.415507 L41.1760769,151.625634 L19.8243462,151.625634 L19.8243462,146.415507 L23.0564889,146.415507 C24.003283,146.415507 24.4766729,146.134329 24.4766729,145.571963 C24.4766729,145.472722 24.4603491,145.373482 24.427701,145.274241 C24.3950529,145.175 24.3624054,145.059221 24.3297573,144.9269 L23.5951794,142.297026 L12.1357643,142.297026 L11.4501582,144.529938 C11.352214,144.79458 11.3032427,145.026139 11.3032427,145.224621 C11.3032427,146.018549 12.0378132,146.415507 13.5069763,146.415507 L16.1024849,146.415507 L16.1024849,151.625634 L1.70475821,151.625634 L1.65578635,146.415507 Z M13.6538919,137.23576 L22.2239673,137.23576 L18.2082749,122.349684 L13.6538919,137.23576 Z M44.7999946,146.415507 C47.7056727,146.415507 49.15849,145.654671 49.15849,144.132976 L49.15849,122.250444 C49.15849,120.728748 47.7056727,119.967912 44.7999946,119.967912 L44.7999946,114.757786 L66.9842469,114.757786 L66.9842469,119.967912 C63.3603112,119.967912 61.5483705,120.728748 61.5483705,122.250444 L61.5483705,145.423102 L68.698262,145.423102 C70.3959616,145.423102 71.7181886,144.769775 72.6649826,143.463102 C73.6117766,142.156429 74.2157568,140.047589 74.4769414,137.13652 L79.9617897,137.483862 L78.786465,151.625634 L44.7999946,151.625634 L44.7999946,146.415507 Z M105.231269,119.967912 C102.325591,119.967912 100.872774,120.728748 100.872774,122.250444 L100.872774,144.132976 C100.872774,145.654671 102.325591,146.415507 105.231269,146.415507 L105.231269,151.625634 L84.0754259,151.625634 L84.0754259,146.415507 C87.0137521,146.415507 88.4828932,145.654671 88.4828932,144.132976 L88.4828932,122.250444 C88.4828932,120.728748 87.0137521,119.967912 84.0754259,119.967912 L84.0754259,114.757786 L105.231269,114.757786 L105.231269,119.967912 Z M109.393877,132.918798 C109.393877,129.511524 109.875429,126.608768 110.838547,124.210444 C111.801665,121.81212 113.074921,119.852139 114.658352,118.330444 C116.241783,116.808748 118.053724,115.700574 120.094229,115.005887 C122.134733,114.3112 124.23234,113.963862 126.387112,113.963862 C131.055786,113.963862 134.549077,114.857017 136.86709,116.643355 L137.846528,114.757786 L143.821094,114.757786 L143.821094,126.815507 L137.503725,127.31171 C136.850763,122.548142 134.483814,120.166393 130.402805,120.166393 C128.868346,120.166393 127.570604,120.406222 126.509542,120.885887 C125.44848,121.365552 124.591481,122.126388 123.938519,123.168419 C123.285558,124.210449 122.82033,125.533643 122.542821,127.138039 C122.265313,128.742435 122.126561,130.669336 122.126561,132.918798 C122.126561,135.796787 122.29796,138.062756 122.640765,139.716773 C122.98357,141.37079 123.489607,142.619554 124.158893,143.463102 C124.828178,144.306651 125.636206,144.835928 126.583,145.05095 C127.529794,145.265972 128.59084,145.373482 129.766171,145.373482 C130.615021,145.373482 131.439372,145.307322 132.23925,145.175001 C133.039127,145.042679 133.749212,144.819391 134.369526,144.505127 C134.989839,144.190864 135.487714,143.785636 135.863167,143.289431 C136.23862,142.793226 136.426344,142.197789 136.426344,141.503102 L136.426344,139.319811 C136.426344,137.798116 134.957203,137.037279 132.018876,137.037279 L132.018876,131.827153 L149.256971,131.827153 L149.256971,137.037279 C146.318645,137.037279 144.849503,137.798116 144.849503,139.319811 L144.849503,151.625634 L137.65064,151.625634 L136.671203,149.095001 C136.410018,149.491965 136.001924,149.880653 135.446906,150.261077 C134.891889,150.641501 134.181804,150.997109 133.316631,151.327912 C132.451457,151.658716 131.406734,151.923354 130.182432,152.121836 C128.958129,152.320318 127.562445,152.419558 125.995338,152.419558 C124.036453,152.419558 122.069437,152.113569 120.094229,151.501583 C118.11902,150.889597 116.339727,149.831042 114.756296,148.325887 C113.172864,146.820732 111.883285,144.819402 110.887519,142.321836 C109.891753,139.824271 109.393877,136.689956 109.393877,132.918798 L109.393877,132.918798 Z M194.409025,119.967912 C191.503347,119.967912 190.05053,120.728748 190.05053,122.250444 L190.05053,151.625634 L175.407944,151.625634 L163.164979,125.823102 L163.164979,144.132976 C163.164979,145.654671 164.617796,146.415507 167.523474,146.415507 L167.523474,151.625634 L152.440142,151.625634 L152.440142,146.415507 C155.34582,146.415507 156.798637,145.654671 156.798637,144.132976 L156.798637,122.250444 C156.798637,120.728748 155.34582,119.967912 152.440142,119.967912 L152.440142,114.757786 L171.09842,114.757786 L183.684188,141.255001 L183.684188,122.250444 C183.684188,120.728748 182.231371,119.967912 179.325693,119.967912 L179.325693,114.757786 L194.409025,114.757786 L194.409025,119.967912 Z M232.705019,125.922343 L226.338678,126.170444 C226.338678,122.697009 224.787918,120.960317 221.686351,120.960317 L214.242628,120.960317 L214.242628,129.792722 L216.103559,129.792722 C217.213593,129.792722 217.915516,128.072571 218.209349,124.632216 L223.694197,124.632216 L222.959619,140.113735 L217.572715,140.113735 C217.213586,136.541059 216.609606,134.754748 215.760756,134.754748 L214.242628,134.754748 L214.242628,145.423102 L219.923364,145.423102 C224.755278,145.423102 227.252818,142.660936 227.416059,137.13652 L233.880344,137.483862 L232.705019,151.625634 L197.494252,151.625634 L197.494252,146.415507 C200.399931,146.415507 201.852748,145.654671 201.852748,144.132976 L201.852748,122.250444 C201.852748,120.728748 200.399931,119.967912 197.494252,119.967912 L197.494252,114.757786 L232.705019,114.757786 L232.705019,125.922343 Z M237.945008,114.757786 L258.072443,114.757786 C261.304601,114.757786 264.063322,114.964535 266.348687,115.378039 C268.634052,115.791543 270.494964,116.618539 271.931479,117.859051 C273.367994,119.099564 274.420878,120.861065 275.090164,123.143608 C275.759449,125.426151 276.094087,128.452957 276.094087,132.224115 C276.094087,136.160675 275.759449,139.385959 275.090164,141.900064 C274.420878,144.41417 273.367994,146.39069 271.931479,147.829684 C270.494964,149.268679 268.634052,150.261074 266.348687,150.8069 C264.063322,151.352725 261.304601,151.625634 258.072443,151.625634 L237.945008,151.625634 L237.945008,146.415507 C240.850687,146.415507 242.303504,145.654671 242.303504,144.132976 L242.303504,122.250444 C242.303504,120.728748 240.850687,119.967912 237.945008,119.967912 L237.945008,114.757786 Z M254.693384,145.423102 L258.855992,145.423102 C259.933379,145.423102 260.782216,145.208083 261.402529,144.778039 C262.022842,144.347994 262.479908,143.620238 262.773741,142.594748 C263.067574,141.569257 263.255297,140.221254 263.336917,138.550697 C263.418538,136.88014 263.459347,134.82092 263.459347,132.372976 C263.459347,129.925031 263.418538,127.94851 263.336917,126.443355 C263.255297,124.9382 263.067574,123.780406 262.773741,122.969938 C262.479908,122.159469 262.022842,121.621922 261.402529,121.357279 C260.782216,121.092637 259.933379,120.960317 258.855992,120.960317 L254.693384,120.960317 L254.693384,145.423102 Z" id="Aligned-Copy" fill="#9D0D2B"></path>
                    <polyline id="Fill-671" fill="#9D0D2B" points="271.316092 35.8026667 269.622227 32.6174054 265.83355 32.1079891 268.57537 29.6295194 267.927264 26.1293975 271.316092 27.7807708 274.706019 26.1293975 274.057913 29.6295194 276.80193 32.1079891 273.012154 32.6174054 271.316092 35.8026667"></polyline>
                    <polyline id="Fill-672" fill="#9D0D2B" points="259.236045 35.8026667 257.541081 32.6174054 253.750207 32.1079891 256.493126 29.6295194 255.847216 26.1293975 259.236045 27.7807708 262.624873 26.1293975 261.977865 29.6295194 264.719685 32.1079891 260.92991 32.6174054 259.236045 35.8026667"></polyline>
                    <polyline id="Fill-673" fill="#9D0D2B" points="246.05092 35.8026667 244.357055 32.6174054 240.568378 32.1079891 243.312395 29.6295194 242.66319 26.1293975 246.05092 27.7807708 249.441946 26.1293975 248.792741 29.6295194 251.535659 32.1079891 247.746982 32.6174054 246.05092 35.8026667"></polyline>
                    <polyline id="Fill-674" fill="#9D0D2B" points="233.968675 35.8026667 232.27481 32.6174054 228.485035 32.1079891 231.227954 29.6295194 230.579847 26.1293975 233.968675 27.7807708 237.358602 26.1293975 236.710496 29.6295194 239.453415 32.1079891 235.663639 32.6174054 233.968675 35.8026667"></polyline>
                    <polyline id="Fill-675" fill="#9D0D2B" points="220.786847 35.8026667 219.090785 32.6174054 215.303206 32.1079891 218.045026 29.6295194 217.39692 26.1293975 220.786847 27.7807708 224.175675 26.1293975 223.52647 29.6295194 226.270487 32.1079891 222.480712 32.6174054 220.786847 35.8026667"></polyline>
                    <polyline id="Fill-676" fill="#9D0D2B" points="208.704602 35.8026667 207.009638 32.6174054 203.219863 32.1079891 205.962781 29.6295194 205.314675 26.1293975 208.704602 27.7807708 212.09343 26.1293975 211.445324 29.6295194 214.189341 32.1079891 210.399565 32.6174054 208.704602 35.8026667"></polyline>
                    <polyline id="Fill-677" fill="#9D0D2B" points="195.522773 35.8026667 193.825612 32.6174054 190.038034 32.1079891 192.780952 29.6295194 192.131747 26.1293975 195.522773 27.7807708 198.911601 26.1293975 198.262396 29.6295194 201.006414 32.1079891 197.216638 32.6174054 195.522773 35.8026667"></polyline>
                    <polyline id="Fill-678" fill="#9D0D2B" points="183.440528 35.8026667 181.745565 32.6174054 177.95469 32.1079891 180.697609 29.6295194 180.0517 26.1293975 183.440528 27.7807708 186.829357 26.1293975 186.182349 29.6295194 188.925268 32.1079891 185.134393 32.6174054 183.440528 35.8026667"></polyline>
                    <polyline id="Fill-679" fill="#9D0D2B" points="170.257601 35.8026667 168.562637 32.6174054 164.772861 32.1079891 167.516879 29.6295194 166.867674 26.1293975 170.257601 27.7807708 173.646429 26.1293975 172.997224 29.6295194 175.740143 32.1079891 171.951466 32.6174054 170.257601 35.8026667"></polyline>
                    <polyline id="Fill-680" fill="#9D0D2B" points="158.173159 35.8026667 156.478196 32.6174054 152.689518 32.1079891 155.43024 29.6295194 154.783232 26.1293975 158.173159 27.7807708 161.561988 26.1293975 160.913881 29.6295194 163.657898 32.1079891 159.868123 32.6174054 158.173159 35.8026667"></polyline>
                    <polyline id="Fill-681" fill="#9D0D2B" points="146.090914 35.8026667 144.393754 32.6174054 140.606175 32.1079891 143.347996 29.6295194 142.699889 26.1293975 146.090914 27.7807708 149.478644 26.1293975 148.830538 29.6295194 151.573457 32.1079891 147.784779 32.6174054 146.090914 35.8026667"></polyline>
                    <polyline id="Fill-682" fill="#9D0D2B" points="132.906889 35.8026667 131.211925 32.6174054 127.424346 32.1079891 130.165068 29.6295194 129.51806 26.1293975 132.906889 27.7807708 136.297914 26.1293975 135.648709 29.6295194 138.391628 32.1079891 134.602951 32.6174054 132.906889 35.8026667"></polyline>
                    <polyline id="Fill-683" fill="#9D0D2B" points="120.825742 35.8026667 119.12968 32.6174054 115.341003 32.1079891 118.083922 29.6295194 117.436914 26.1293975 120.825742 27.7807708 124.214571 26.1293975 123.567563 29.6295194 126.309383 32.1079891 122.519607 32.6174054 120.825742 35.8026667"></polyline>
                    <polyline id="Fill-684" fill="#9D0D2B" points="107.641716 35.8026667 105.946753 32.6174054 102.159174 32.1079891 104.898798 29.6295194 104.253986 26.1293975 107.641716 27.7807708 111.031643 26.1293975 110.383537 29.6295194 113.126456 32.1079891 109.33668 32.6174054 107.641716 35.8026667"></polyline>
                    <polyline id="Fill-685" fill="#9D0D2B" points="95.5616688 35.8026667 93.8656068 32.6174054 90.075831 32.1079891 92.8187499 29.6295194 92.1717417 26.1293975 95.5616688 27.7807708 98.9504973 26.1293975 98.3023907 29.6295194 101.046408 32.1079891 97.2544353 32.6174054 95.5616688 35.8026667"></polyline>
                    <polyline id="Fill-686" fill="#9D0D2B" points="82.3765444 35.8026667 80.6815809 32.6174054 76.894002 32.1079891 79.6358224 29.6295194 78.9877159 26.1293975 82.3765444 27.7807708 85.7675699 26.1293975 85.1172663 29.6295194 87.8612837 32.1079891 84.0726064 32.6174054 82.3765444 35.8026667"></polyline>
                    <polyline id="Fill-687" fill="#9D0D2B" points="70.2953982 35.8026667 68.5982377 32.6174054 64.8106589 32.1079891 67.5524793 29.6295194 66.9065697 26.1293975 70.2953982 27.7807708 73.6853252 26.1293975 73.0372186 29.6295194 75.7801375 32.1079891 71.9903617 32.6174054 70.2953982 35.8026667"></polyline>
                    <polyline id="Fill-688" fill="#9D0D2B" points="57.1113723 35.8026667 55.4175073 32.6174054 51.6288299 32.1079891 54.3717488 29.6295194 53.7236422 26.1293975 57.1113723 27.7807708 60.5023978 26.1293975 59.8531927 29.6295194 62.5961116 32.1079891 58.8074343 32.6174054 57.1113723 35.8026667"></polyline>
                    <polyline id="Fill-689" fill="#9D0D2B" points="45.0302261 35.8026667 43.3330656 32.6174054 39.5454868 32.1079891 42.2862087 29.6295194 41.6402991 26.1293975 45.0302261 27.7807708 48.4190546 26.1293975 47.770948 29.6295194 50.5138669 32.1079891 46.7240911 32.6174054 45.0302261 35.8026667"></polyline>
                    <polyline id="Fill-690" fill="#9D0D2B" points="31.8483972 35.8026667 30.1512367 32.6174054 26.3636578 32.1079891 29.1043798 29.6295194 28.4584702 26.1293975 31.8483972 27.7807708 35.2361272 26.1293975 34.5891191 29.6295194 37.332038 32.1079891 33.5422622 32.6174054 31.8483972 35.8026667"></polyline>
                    <polyline id="Fill-691" fill="#9D0D2B" points="19.765054 35.8026667 18.0678935 32.6174054 14.2803147 32.1079891 17.0221351 29.6295194 16.3762255 26.1293975 19.765054 27.7807708 23.1538825 26.1293975 22.5057759 29.6295194 25.2497933 32.1079891 21.461116 32.6174054 19.765054 35.8026667"></polyline>
                    <polyline id="Fill-692" fill="#9D0D2B" points="6.58322506 35.8026667 4.88606459 32.6174054 1.09848574 32.1079891 3.84030616 29.6295194 3.19329806 26.1293975 6.58322506 27.7807708 9.97205358 26.1293975 9.32394699 29.6295194 12.0657674 32.1079891 8.27709008 32.6174054 6.58322506 35.8026667"></polyline>
                    <polygon id="Fill-693" fill="#24346D" points="2.19697149 17.0219374 276.464695 17.0219374 276.464695 12.9710445 2.19697149 12.9710445"></polygon>
                    <polygon id="Fill-713" fill="#9D0D2B" points="0 8.7133774 279 8.7133774 279 0.75257384 0 0.75257384"></polygon>
                    <polyline id="Fill-671-Copy" fill="#9D0D2B" transform="translate(271.237899, 165.526235) scale(1, -1) translate(-271.237899, -165.526235) " points="271.236252 170.362869 269.542387 167.177608 265.753709 166.668192 268.49553 164.189722 267.847423 160.6896 271.236252 162.340973 274.626179 160.6896 273.978072 164.189722 276.722089 166.668192 272.932314 167.177608 271.236252 170.362869"></polyline>
                    <polyline id="Fill-672-Copy" fill="#9D0D2B" transform="translate(259.647944, 165.526235) scale(1, -1) translate(-259.647944, -165.526235) " points="259.649043 170.362869 257.954079 167.177608 254.163205 166.668192 256.906124 164.189722 256.260214 160.6896 259.649043 162.340973 263.037871 160.6896 262.390863 164.189722 265.132683 166.668192 261.342908 167.177608 259.649043 170.362869"></polyline>
                    <polyline id="Fill-673-Copy" fill="#9D0D2B" transform="translate(246.400555, 165.526235) scale(1, -1) translate(-246.400555, -165.526235) " points="246.399456 170.362869 244.705591 167.177608 240.916914 166.668192 243.660931 164.189722 243.011726 160.6896 246.399456 162.340973 249.790482 160.6896 249.141277 164.189722 251.884196 166.668192 248.095518 167.177608 246.399456 170.362869"></polyline>
                    <polyline id="Fill-674-Copy" fill="#9D0D2B" transform="translate(233.982706, 165.526235) scale(1, -1) translate(-233.982706, -165.526235) " points="233.982157 170.362869 232.288292 167.177608 228.498516 166.668192 231.241435 164.189722 230.593329 160.6896 233.982157 162.340973 237.372084 160.6896 236.723978 164.189722 239.466896 166.668192 235.677121 167.177608 233.982157 170.362869"></polyline>
                    <polyline id="Fill-675-Copy" fill="#9D0D2B" transform="translate(220.735866, 165.526235) scale(1, -1) translate(-220.735866, -165.526235) " points="220.735866 170.362869 219.039804 167.177608 215.252226 166.668192 217.994046 164.189722 217.345939 160.6896 220.735866 162.340973 224.124695 160.6896 223.47549 164.189722 226.219507 166.668192 222.429731 167.177608 220.735866 170.362869"></polyline>
                    <polyline id="Fill-676-Copy" fill="#9D0D2B" transform="translate(209.146460, 165.526235) scale(1, -1) translate(-209.146460, -165.526235) " points="209.14646 170.362869 207.451497 167.177608 203.661721 166.668192 206.40464 164.189722 205.756533 160.6896 209.14646 162.340973 212.535289 160.6896 211.887182 164.189722 214.6312 166.668192 210.841424 167.177608 209.14646 170.362869"></polyline>
                    <polyline id="Fill-677-Copy" fill="#9D0D2B" transform="translate(195.899620, 165.526235) scale(1, -1) translate(-195.899620, -165.526235) " points="195.90017 170.362869 194.203009 167.177608 190.41543 166.668192 193.158349 164.189722 192.509144 160.6896 195.90017 162.340973 199.288998 160.6896 198.639793 164.189722 201.38381 166.668192 197.594035 167.177608 195.90017 170.362869"></polyline>
                    <polyline id="Fill-678-Copy" fill="#9D0D2B" transform="translate(183.482321, 165.526235) scale(1, -1) translate(-183.482321, -165.526235) " points="183.48287 170.362869 181.787907 167.177608 177.997033 166.668192 180.739952 164.189722 180.094042 160.6896 183.48287 162.340973 186.871699 160.6896 186.224691 164.189722 188.96761 166.668192 185.176735 167.177608 183.48287 170.362869"></polyline>
                    <polyline id="Fill-679-Copy" fill="#9D0D2B" transform="translate(170.234383, 165.526235) scale(1, -1) translate(-170.234383, -165.526235) " points="170.235481 170.362869 168.540518 167.177608 164.750742 166.668192 167.494759 164.189722 166.845554 160.6896 170.235481 162.340973 173.62431 160.6896 172.975105 164.189722 175.718024 166.668192 171.929346 167.177608 170.235481 170.362869"></polyline>
                    <polyline id="Fill-680-Copy" fill="#9D0D2B" transform="translate(158.644427, 165.526235) scale(1, -1) translate(-158.644427, -165.526235) " points="158.643878 170.362869 156.948915 167.177608 153.160237 166.668192 155.900959 164.189722 155.253951 160.6896 158.643878 162.340973 162.032707 160.6896 161.3846 164.189722 164.128618 166.668192 160.338842 167.177608 158.643878 170.362869"></polyline>
                    <polyline id="Fill-681-Copy" fill="#9D0D2B" transform="translate(146.225481, 165.526235) scale(1, -1) translate(-146.225481, -165.526235) " points="146.226579 170.362869 144.529419 167.177608 140.74184 166.668192 143.48366 164.189722 142.835554 160.6896 146.226579 162.340973 149.614309 160.6896 148.966203 164.189722 151.709121 166.668192 147.920444 167.177608 146.226579 170.362869"></polyline>
                    <polyline id="Fill-682-Copy" fill="#9D0D2B" transform="translate(132.979190, 165.526235) scale(1, -1) translate(-132.979190, -165.526235) " points="132.978091 170.362869 131.283128 167.177608 127.495549 166.668192 130.236271 164.189722 129.589263 160.6896 132.978091 162.340973 136.369117 160.6896 135.719912 164.189722 138.462831 166.668192 134.674153 167.177608 132.978091 170.362869"></polyline>
                    <polyline id="Fill-683-Copy" fill="#9D0D2B" transform="translate(121.389235, 165.526235) scale(1, -1) translate(-121.389235, -165.526235) " points="121.389784 170.362869 119.693722 167.177608 115.905045 166.668192 118.647963 164.189722 118.000955 160.6896 121.389784 162.340973 124.778612 160.6896 124.131604 164.189722 126.873425 166.668192 123.083649 167.177608 121.389784 170.362869"></polyline>
                    <polyline id="Fill-684-Copy" fill="#9D0D2B" transform="translate(108.142395, 165.526235) scale(1, -1) translate(-108.142395, -165.526235) " points="108.141296 170.362869 106.446333 167.177608 102.658754 166.668192 105.398377 164.189722 104.753566 160.6896 108.141296 162.340973 111.531223 160.6896 110.883116 164.189722 113.626035 166.668192 109.83626 167.177608 108.141296 170.362869"></polyline>
                    <polyline id="Fill-685-Copy" fill="#9D0D2B" transform="translate(95.725645, 165.526235) scale(1, -1) translate(-95.725645, -165.526235) " points="95.7261939 170.362869 94.0301319 167.177608 90.2403561 166.668192 92.983275 164.189722 92.3362669 160.6896 95.7261939 162.340973 99.1150224 160.6896 98.4669158 164.189722 101.210933 166.668192 97.4189604 167.177608 95.7261939 170.362869"></polyline>
                    <polyline id="Fill-686-Copy" fill="#9D0D2B" transform="translate(82.477706, 165.526235) scale(1, -1) translate(-82.477706, -165.526235) " points="82.4766076 170.362869 80.7816441 167.177608 76.9940653 166.668192 79.7358857 164.189722 79.0877791 160.6896 82.4766076 162.340973 85.8676331 160.6896 85.2173296 164.189722 87.9613469 166.668192 84.1726696 167.177608 82.4766076 170.362869"></polyline>
                    <polyline id="Fill-687-Copy" fill="#9D0D2B" transform="translate(70.888300, 165.526235) scale(1, -1) translate(-70.888300, -165.526235) " points="70.8883001 170.362869 69.1911397 167.177608 65.4035608 166.668192 68.1453812 164.189722 67.4994716 160.6896 70.8883001 162.340973 74.2782272 160.6896 73.6301206 164.189722 76.3730395 166.668192 72.5832636 167.177608 70.8883001 170.362869"></polyline>
                    <polyline id="Fill-688-Copy" fill="#9D0D2B" transform="translate(57.640911, 165.526235) scale(1, -1) translate(-57.640911, -165.526235) " points="57.6398124 170.362869 55.9459474 167.177608 52.15727 166.668192 54.9001889 164.189722 54.2520823 160.6896 57.6398124 162.340973 61.0308379 160.6896 60.3816328 164.189722 63.1245517 166.668192 59.3358744 167.177608 57.6398124 170.362869"></polyline>
                    <polyline id="Fill-689-Copy" fill="#9D0D2B" transform="translate(45.223062, 165.526235) scale(1, -1) translate(-45.223062, -165.526235) " points="45.2236117 170.362869 43.5264512 167.177608 39.7388724 166.668192 42.4795943 164.189722 41.8336847 160.6896 45.2236117 162.340973 48.6124402 160.6896 47.9643336 164.189722 50.7072526 166.668192 46.9174767 167.177608 45.2236117 170.362869"></polyline>
                    <polyline id="Fill-690-Copy" fill="#9D0D2B" transform="translate(31.976772, 165.526235) scale(1, -1) translate(-31.976772, -165.526235) " points="31.9773209 170.362869 30.2801604 167.177608 26.4925816 166.668192 29.2333035 164.189722 28.5873939 160.6896 31.9773209 162.340973 35.365051 160.6896 34.7180428 164.189722 37.4609617 166.668192 33.6711859 167.177608 31.9773209 170.362869"></polyline>
                    <polyline id="Fill-691-Copy" fill="#9D0D2B" transform="translate(20.386816, 165.526235) scale(1, -1) translate(-20.386816, -165.526235) " points="20.3868165 170.362869 18.689656 167.177608 14.9020772 166.668192 17.6438976 164.189722 16.9979879 160.6896 20.3868165 162.340973 23.775645 160.6896 23.1275384 164.189722 25.8715558 166.668192 22.0828785 167.177608 20.3868165 170.362869"></polyline>
                    <polyline id="Fill-692-Copy" fill="#9D0D2B" transform="translate(7.139427, 165.526235) scale(1, -1) translate(-7.139427, -165.526235) " points="7.14052567 170.362869 5.44336519 167.177608 1.65578635 166.668192 4.39760677 164.189722 3.75059866 160.6896 7.14052567 162.340973 10.5293542 160.6896 9.8812476 164.189722 12.623068 166.668192 8.83439068 167.177608 7.14052567 170.362869"></polyline>
                    <polygon id="Fill-693-Copy" fill="#24346D" transform="translate(139.617541, 181.569490) scale(1, -1) translate(-139.617541, -181.569490) " points="2.48367953 183.594937 276.751403 183.594937 276.751403 179.544044 2.48367953 179.544044"></polygon>
                    <polygon id="Fill-713-Copy" fill="#9D0D2B" transform="translate(139.500000, 191.710360) scale(1, -1) translate(-139.500000, -191.710360) " points="0 195.690761 279 195.690761 279 187.729958 0 187.729958"></polygon>
                    <polygon id="Fill-239" fill="#24346D" points="98.5192878 99.3438819 124.921629 99.3438819 124.921629 97.5864979 98.5192878 97.5864979"></polygon>
                    <path d="M124.921629,97.6377722 L124.921629,98.5160506 L98.9920148,98.5160506 L98.9920148,97.6377722 L124.921629,97.6377722 L124.921629,97.6377722 Z M98.5192878,99.3943291 L125.394356,99.3943291 L125.394356,96.7594937 L98.5192878,96.7594937 L98.5192878,99.3943291 Z" id="Fill-240" fill="#24346D"></path>
                    <polygon id="Fill-241" fill="#24346D" points="153.988131 99.3438819 180.3913 99.3438819 180.3913 97.5864979 153.988131 97.5864979"></polygon>
                    <path d="M180.3913,97.6377722 L180.3913,98.5160506 L154.461685,98.5160506 L154.461685,97.6377722 L180.3913,97.6377722 L180.3913,97.6377722 Z M153.988131,99.3943291 L180.864027,99.3943291 L180.864027,96.7594937 L153.988131,96.7594937 L153.988131,99.3943291 Z" id="Fill-242" fill="#24346D"></path>
                    <polygon id="Fill-243" fill="#24346D" points="152.141101 91.9041519 142.783424 91.9041519 139.818739 84.3544304 136.854881 91.9041519 127.495549 91.9041519 134.949071 96.7619747 131.600243 105.288388 139.818739 99.9351899 148.036407 105.288388 144.689234 96.7619747"></polygon>
                </g>
            </g>
        </g>
    </g>
</svg>