<?xml version="1.0" encoding="UTF-8" standalone="no"?>
<svg width="370px" height="169px" viewBox="0 0 370 169" version="1.1" xmlns="http://www.w3.org/2000/svg" xmlns:xlink="http://www.w3.org/1999/xlink">
    <!-- Generator: Sketch 3.8.3 (29802) - http://www.bohemiancoding.com/sketch -->
    <title>Group 2</title>
    <desc>Created with Sketch.</desc>
    <defs></defs>
    <g id="Page-1" stroke="none" stroke-width="1" fill="none" fill-rule="evenodd">
        <g id="Desktop" transform="translate(-552.000000, -1469.000000)">
            <g id="Group-2" transform="translate(561.000000, 1479.000000)">
                <g id="Group">
                    <path d="M0.910332061,90.0667444 C0.910332061,127.752761 31.5600472,158.414293 69.232983,158.414293 C106.907679,158.414293 137.556808,127.752761 137.556808,90.0667444 C137.556808,52.3807278 106.907679,21.7203704 69.232983,21.7203704 C31.5600472,21.7203704 0.910332061,52.3807278 0.910332061,90.0667444 L0.910332061,90.0667444 Z" id="Path" fill="#9D0D2B"></path>
                    <path d="M6.19183154,90.2962759 C6.19183154,55.396337 34.5751966,27.0037037 69.461848,27.0037037 C104.349673,27.0037037 132.733038,55.396337 132.733038,90.2962759 C132.733038,125.196215 104.349673,153.589435 69.461848,153.589435 C34.5751966,153.589435 6.19183154,125.196215 6.19183154,90.2962759 L6.19183154,90.2962759 Z" id="Fill-453" fill="#FFFFFF"></path>
                    <path d="M69.310445,30.5259259 C36.4460211,30.5259259 9.71283119,57.2683981 9.71283119,90.1442333 C9.71283119,123.019481 36.4460211,149.767237 69.310445,149.767237 C102.174282,149.767237 128.907472,123.019481 128.907472,90.1442333 C128.907472,57.2683981 102.174282,30.5259259 69.310445,30.5259259" id="Fill-454" fill="#9D0D2B"></path>
                    <path d="M67.7887863,78.2714093 C67.7887863,78.2714093 107.939919,24.2176259 169.71175,0 C169.71175,0 96.1005577,58.7447963 70.362637,125.409309 C70.362637,125.409309 64.1289554,88.4520991 1.32723197,62.7046547 C1.32723197,62.7046547 33.8223302,55.8861694 67.7887863,78.2714093 Z" id="Fill-3" stroke="#9D0D2B" stroke-width="6" fill="#FFFFFF"></path>
                </g>
                <path d="M167.93291,71 L167.93291,39.625101 L180.924769,39.625101 C182.279936,39.625101 183.524609,39.9123331 184.658824,40.4868059 C185.79304,41.0612788 186.772575,41.8125013 187.597459,42.7404959 C188.422343,43.6684905 189.070457,44.7216749 189.541819,45.9000808 C190.013182,47.0784866 190.248859,48.2716047 190.248859,49.4794707 C190.248859,50.7757171 190.027911,52.0203896 189.586009,53.2135256 C189.144107,54.4066615 188.525453,55.4598459 187.730029,56.3731105 C186.934605,57.286375 185.98453,58.0228676 184.879774,58.5826104 C183.775019,59.1423532 182.545076,59.4222204 181.189909,59.4222204 L171.02621,59.4222204 L171.02621,71 L167.93291,71 Z M171.02621,56.6824404 L181.057339,56.6824404 C181.970604,56.6824404 182.802841,56.4835874 183.554074,56.0858755 C184.305308,55.6881635 184.946057,55.1578888 185.476339,54.4950355 C186.006622,53.8321822 186.419058,53.0662299 186.713659,52.1971556 C187.008261,51.3280813 187.155559,50.4221954 187.155559,49.4794707 C187.155559,48.5072858 186.986166,47.5866701 186.647374,46.7175958 C186.308583,45.8485214 185.851957,45.089934 185.277484,44.4418108 C184.703011,43.7936876 184.025438,43.2855077 183.244744,42.9172559 C182.464051,42.549004 181.646544,42.3648809 180.792199,42.3648809 L171.02621,42.3648809 L171.02621,56.6824404 Z M196.25657,71 L196.25657,39.625101 L209.513569,39.625101 C210.868736,39.625101 212.113409,39.9123331 213.247624,40.4868059 C214.38184,41.0612788 215.361375,41.8125013 216.186259,42.7404959 C217.011143,43.6684905 217.651892,44.7216749 218.108524,45.9000808 C218.565156,47.0784866 218.793469,48.2716047 218.793469,49.4794707 C218.793469,50.6284164 218.624076,51.7257904 218.285284,52.7716256 C217.946492,53.8174608 217.475137,54.7601713 216.871204,55.5997855 C216.267271,56.4393997 215.538144,57.1464326 214.683799,57.7209054 C213.829455,58.2953783 212.872015,58.6857194 211.811449,58.8919404 L219.500509,71 L216.009499,71 L208.629769,59.4222204 L199.34987,59.4222204 L199.34987,71 L196.25657,71 Z M199.34987,56.6824404 L209.601949,56.6824404 C210.515214,56.6824404 211.347451,56.4835874 212.098684,56.0858755 C212.849918,55.6881635 213.490667,55.1505239 214.020949,54.4729405 C214.551232,53.7953571 214.963668,53.0294048 215.258269,52.1750606 C215.552871,51.3207163 215.700169,50.4221954 215.700169,49.4794707 C215.700169,48.536746 215.530776,47.6308601 215.191984,46.7617858 C214.853193,45.8927114 214.396567,45.134124 213.822094,44.4860008 C213.247621,43.8378776 212.570048,43.3223328 211.789354,42.9393509 C211.008661,42.556369 210.191154,42.3648809 209.336809,42.3648809 L199.34987,42.3648809 L199.34987,56.6824404 Z M238.588459,71.22095 C236.408409,71.22095 234.412514,70.7716895 232.600715,69.873155 C230.788916,68.9746206 229.234916,67.7815025 227.93867,66.2937651 C226.642423,64.8060278 225.640793,63.1047298 224.93375,61.1898203 C224.226706,59.2749108 223.87319,57.3158404 223.87319,55.3125505 C223.87319,53.2208801 224.248801,51.2176202 225.000035,49.3027107 C225.751269,47.3878012 226.789723,45.6938682 228.11543,44.2208608 C229.441136,42.7478535 231.002501,41.5768303 232.79957,40.7077559 C234.596639,39.8386816 236.540979,39.404151 238.632649,39.404151 C240.8127,39.404151 242.808595,39.8681413 244.620394,40.7961359 C246.432193,41.7241305 247.978828,42.9393434 249.260344,44.4418108 C250.54186,45.9442783 251.536125,47.6455762 252.243169,49.5457557 C252.950213,51.4459351 253.303729,53.3829107 253.303729,55.3567405 C253.303729,57.4484109 252.928118,59.4516708 252.176884,61.3665803 C251.42565,63.2814898 250.394561,64.9680579 249.083584,66.4263351 C247.772608,67.8846124 246.218608,69.0482707 244.421539,69.917345 C242.62447,70.7864194 240.68013,71.22095 238.588459,71.22095 L238.588459,71.22095 Z M226.96649,55.3125505 C226.96649,57.021239 227.246357,58.6636175 227.8061,60.2397353 C228.365843,61.8158532 229.161255,63.2151891 230.19236,64.4377852 C231.223465,65.6603813 232.446043,66.6325515 233.86013,67.3543251 C235.274217,68.0760987 236.850311,68.4369801 238.588459,68.4369801 C240.356068,68.4369801 241.961622,68.0540039 243.405169,67.2880401 C244.848716,66.5220763 246.071294,65.5204464 247.072939,64.2831202 C248.074584,63.0457941 248.847901,61.6464581 249.392914,60.0850703 C249.937927,58.5236826 250.210429,56.9328585 250.210429,55.3125505 C250.210429,53.603862 249.923197,51.9614835 249.348724,50.3853656 C248.774251,48.8092478 247.971474,47.4172768 246.940369,46.2094108 C245.909264,45.0015448 244.686686,44.0367394 243.272599,43.3149659 C241.858512,42.5931923 240.297148,42.2323109 238.588459,42.2323109 C236.820851,42.2323109 235.215297,42.6079221 233.77175,43.3591559 C232.328202,44.1103896 231.105625,45.1046546 230.10398,46.3419808 C229.102335,47.5793069 228.329017,48.9786429 227.784005,50.5400306 C227.238992,52.1014184 226.96649,53.6922424 226.96649,55.3125505 L226.96649,55.3125505 Z M255.99719,67.0670901 C256.645313,67.5089923 257.47755,67.8919685 258.493925,68.2160301 C259.5103,68.5400917 260.651863,68.7021201 261.91865,68.7021201 C263.509497,68.7021201 264.78363,68.414888 265.741084,67.8404151 C266.698539,67.2659422 267.427667,66.4189757 267.928489,65.2994902 C268.429312,64.1800046 268.753369,62.8027634 268.900669,61.1677253 C269.04797,59.5326872 269.121619,57.6693609 269.121619,55.5776905 L269.121619,39.625101 L272.214919,39.625101 L272.214919,55.5776905 C272.214919,57.9639623 272.104445,60.1366155 271.883494,62.0957153 C271.662543,64.054815 271.198553,65.7266532 270.491509,67.1112801 C269.784466,68.495907 268.753376,69.5711862 267.398209,70.33715 C266.043043,71.1031138 264.216541,71.48609 261.91865,71.48609 C259.267236,71.48609 256.998839,70.8379765 255.11339,69.54173 L255.99719,67.0670901 Z M301.599139,68.2602201 L301.599139,71 L280.52051,71 L280.52051,39.625101 L301.201429,39.625101 L301.201429,42.3648809 L283.61381,42.3648809 L283.61381,53.6775205 L298.947739,53.6775205 L298.947739,56.2847305 L283.61381,56.2847305 L283.61381,68.2602201 L301.599139,68.2602201 Z M305.52992,55.0916005 C305.52992,53.2061511 305.861342,51.328095 306.524195,49.4573757 C307.187048,47.5866564 308.151854,45.9148181 309.41864,44.4418108 C310.685426,42.9688035 312.24679,41.7683205 314.10278,40.8403259 C315.958769,39.9123313 318.065138,39.448341 320.421949,39.448341 C323.220663,39.448341 325.614264,40.0817246 327.602824,41.3485109 C329.591384,42.6152972 331.057004,44.2650407 331.999729,46.2977908 L329.569279,47.8002507 C329.068457,46.7691456 328.457168,45.9000843 327.735394,45.1930408 C327.013621,44.4859973 326.240303,43.9115331 325.415419,43.4696309 C324.590535,43.0277287 323.736204,42.7110368 322.852399,42.5195459 C321.968595,42.3280549 321.099534,42.2323109 320.245189,42.2323109 C318.35974,42.2323109 316.695267,42.6152871 315.25172,43.3812509 C313.808172,44.1472147 312.59296,45.1488446 311.606045,46.3861708 C310.61913,47.6234969 309.875272,49.0154679 309.37445,50.5621256 C308.873627,52.1087833 308.62322,53.6775126 308.62322,55.2683605 C308.62322,57.0065091 308.925182,58.6709824 309.529115,60.2618303 C310.133048,61.8526782 310.95792,63.2593791 312.003755,64.4819752 C313.04959,65.7045713 314.286898,66.6767415 315.715715,67.3985151 C317.144532,68.1202887 318.698531,68.4811701 320.377759,68.4811701 C321.261564,68.4811701 322.16745,68.3706962 323.095444,68.1497451 C324.023439,67.928794 324.92196,67.5752775 325.791034,67.0891851 C326.660109,66.6030927 327.462886,65.9991688 328.199389,65.2773952 C328.935893,64.5556216 329.554547,63.6791954 330.055369,62.6480903 L332.618389,63.9737902 C332.117567,65.1521961 331.410534,66.1906507 330.497269,67.0891851 C329.584005,67.9877196 328.567645,68.746307 327.448159,69.3649701 C326.328674,69.9836331 325.142921,70.4549884 323.890864,70.77905 C322.638808,71.1031116 321.408865,71.26514 320.200999,71.26514 C318.050409,71.26514 316.076609,70.7937847 314.27954,69.85106 C312.482471,68.9083354 310.935836,67.6783927 309.63959,66.1611952 C308.343343,64.6439976 307.334348,62.9206049 306.612575,60.9909653 C305.890801,59.0613257 305.52992,57.0948904 305.52992,55.0916005 L305.52992,55.0916005 Z M360.721099,42.3648809 L349.541029,42.3648809 L349.541029,71 L346.44773,71 L346.44773,42.3648809 L335.26766,42.3648809 L335.26766,39.625101 L360.721099,39.625101 L360.721099,42.3648809 Z" id="PROJECT" fill="#9D0D2B"></path>
                <g id="Group" transform="translate(222.000000, 76.500000)" fill="#24346D">
                    <polygon id="Fill-239" points="0 14.9894515 26.4023412 14.9894515 26.4023412 13.2320675 0 13.2320675"></polygon>
                    <path d="M26.4023412,13.2833418 L26.4023412,14.1616203 L0.472727003,14.1616203 L0.472727003,13.2833418 L26.4023412,13.2833418 L26.4023412,13.2833418 Z M0,15.0398987 L26.8750682,15.0398987 L26.8750682,12.4050633 L0,12.4050633 L0,15.0398987 Z" id="Fill-240"></path>
                    <polygon id="Fill-241" points="55.4688427 14.9894515 81.8720119 14.9894515 81.8720119 13.2320675 55.4688427 13.2320675"></polygon>
                    <path d="M81.8720119,13.2833418 L81.8720119,14.1616203 L55.9423976,14.1616203 L55.9423976,13.2833418 L81.8720119,13.2833418 L81.8720119,13.2833418 Z M55.4688427,15.0398987 L82.3447389,15.0398987 L82.3447389,12.4050633 L55.4688427,12.4050633 L55.4688427,15.0398987 Z" id="Fill-242"></path>
                    <polygon id="Fill-243" points="53.6218131 7.54972152 44.2641365 7.54972152 41.299451 0 38.3355935 7.54972152 28.9762611 7.54972152 36.4297834 12.4075443 33.0809555 20.9339578 41.299451 15.5807595 49.5171187 20.9339578 46.1699466 12.4075443"></polygon>
                </g>
                <path d="M165.74603,103.937831 L187.359049,103.937831 C189.341039,103.937831 191.102782,104.03221 192.644329,104.220971 C194.185877,104.409732 195.475724,104.810843 196.513909,105.424316 C197.552094,106.037789 198.338586,106.926525 198.873409,108.090551 C199.408232,109.254577 199.675639,110.796101 199.675639,112.715171 C199.675639,113.942117 199.510476,114.988151 199.180144,115.853306 C198.849812,116.71846 198.385782,117.442033 197.788039,118.024046 C197.190296,118.606059 196.474588,119.070089 195.640894,119.416151 C194.8072,119.762212 193.902734,120.01389 192.927469,120.171191 C195.790343,120.422872 198.016116,121.225094 199.604854,122.57788 C201.193592,123.930667 201.987949,125.928357 201.987949,128.57101 C201.987949,130.58446 201.759866,132.259689 201.303694,133.596745 C200.847522,134.933802 200.092489,136.003431 199.038574,136.805665 C197.984659,137.607899 196.600433,138.174173 194.885854,138.504505 C193.171276,138.834837 191.055612,139 188.538799,139 L165.74603,139 L165.74603,134.04505 C168.545984,134.04505 169.94594,133.321477 169.94594,131.87431 L169.94594,111.535421 C169.94594,110.088254 168.545984,109.364681 165.74603,109.364681 L165.74603,103.937831 Z M181.885009,132.8653 L185.188309,132.8653 C186.100654,132.8653 186.847821,132.739461 187.429834,132.48778 C188.011847,132.236099 188.468013,131.890042 188.798344,131.4496 C189.128676,131.009158 189.356759,130.497938 189.482599,129.915925 C189.60844,129.333912 189.671359,128.712584 189.671359,128.05192 C189.671359,127.296877 189.60844,126.612628 189.482599,125.999155 C189.356759,125.385682 189.128676,124.858733 188.798344,124.41829 C188.468013,123.977848 188.011847,123.639657 187.429834,123.403705 C186.847821,123.167754 186.100654,123.04978 185.188309,123.04978 L181.885009,123.04978 L181.885009,132.8653 Z M181.885009,118.236401 L183.961369,118.236401 C184.747873,118.236401 185.377067,118.134157 185.848969,117.929666 C186.320872,117.725175 186.682658,117.426308 186.934339,117.033056 C187.186021,116.639804 187.351184,116.144314 187.429834,115.546571 C187.508485,114.948828 187.547809,114.256715 187.547809,113.470211 C187.547809,112.557866 187.280402,111.842158 186.745579,111.323066 C186.210757,110.803973 185.282696,110.544431 183.961369,110.544431 L181.885009,110.544431 L181.885009,118.236401 Z M204.628315,134.04505 C206.044022,134.04505 207.035002,133.927076 207.601285,133.691125 C208.167567,133.455174 208.545084,133.116982 208.733844,132.67654 L218.077464,103.937831 L230.252484,103.937831 L238.935444,132.62935 C239.312965,133.573155 240.571353,134.04505 242.710643,134.04505 L242.710643,139 L222.135804,139 L222.135804,134.04505 L225.250344,134.04505 C226.162689,134.04505 226.618854,133.777643 226.618854,133.24282 C226.618854,133.14844 226.603124,133.054061 226.571664,132.95968 C226.540204,132.8653 226.508744,132.755191 226.477284,132.62935 L225.769434,130.12828 L214.726974,130.12828 L214.066314,132.25183 C213.971934,132.503511 213.924744,132.723729 213.924744,132.91249 C213.924744,133.667534 214.632587,134.04505 216.048294,134.04505 L218.549364,134.04505 L218.549364,139 L204.675505,139 L204.628315,134.04505 Z M216.189864,125.3149 L224.448114,125.3149 L220.578534,111.157901 L216.189864,125.3149 Z M277.251448,115.263431 L271.918978,115.688141 C271.698757,114.461195 271.289781,113.438755 270.692038,112.620791 C270.094295,111.802827 269.347128,111.150038 268.450514,110.662406 C267.553899,110.174773 266.515729,109.820852 265.335974,109.600631 C264.156218,109.38041 262.889965,109.270301 261.537179,109.270301 C260.813595,109.270301 260.137212,109.309625 259.508009,109.388276 C258.878806,109.466926 258.328261,109.608495 257.856359,109.812986 C257.384456,110.017477 257.00694,110.308479 256.723799,110.686001 C256.440657,111.063523 256.299089,111.535418 256.299089,112.101701 C256.299089,112.982585 256.786714,113.651103 257.761979,114.107276 C258.737244,114.563448 259.979901,114.948829 261.489989,115.263431 C263.000076,115.578032 264.675304,115.892629 266.515724,116.207231 C268.356143,116.521832 270.14148,116.977998 271.871788,117.575741 C274.357141,118.425165 276.236857,119.691417 277.510993,121.374536 C278.78513,123.057654 279.422188,125.314886 279.422188,128.1463 C279.422188,130.00245 279.083997,131.646218 278.407603,133.077655 C277.73121,134.509092 276.795284,135.72029 275.599798,136.711285 C274.404312,137.70228 272.996491,138.457312 271.376293,138.976405 C269.756095,139.495498 268.002218,139.75504 266.114609,139.75504 C264.195539,139.75504 262.606825,139.629201 261.348419,139.37752 C260.090012,139.125839 259.043978,138.842702 258.210284,138.5281 C257.37659,138.213498 256.676612,137.930361 256.110329,137.67868 C255.544046,137.426999 255.009231,137.30116 254.505869,137.30116 C254.065427,137.30116 253.680046,137.426999 253.349714,137.67868 C253.019382,137.930361 252.72838,138.370797 252.476699,139 L247.144229,139 L247.144229,126.96655 L252.476699,126.68341 C252.66546,129.137303 253.766549,130.899045 255.779999,131.96869 C257.793449,133.038336 260.451792,133.57315 263.755109,133.57315 C265.642718,133.57315 267.144918,133.321473 268.261754,132.81811 C269.378589,132.314748 269.936998,131.339497 269.936998,129.89233 C269.936998,129.011446 269.520158,128.342928 268.686463,127.886755 C267.852769,127.430583 266.775275,127.060932 265.453949,126.77779 C264.132622,126.494649 262.654017,126.235107 261.018089,125.999155 C259.382161,125.763204 257.761987,125.425013 256.157519,124.98457 C254.39575,124.481208 252.932875,123.875609 251.768849,123.167755 C250.604823,122.459902 249.676763,121.634085 248.984639,120.690281 C248.292516,119.746476 247.804891,118.668982 247.521749,117.457766 C247.238608,116.24655 247.097039,114.885918 247.097039,113.375831 C247.097039,111.991584 247.332987,110.678142 247.804889,109.435466 C248.276791,108.19279 249.000364,107.107431 249.975629,106.179356 C250.950894,105.251281 252.177822,104.519844 253.656449,103.985021 C255.135076,103.450198 256.896819,103.182791 258.941729,103.182791 C260.766418,103.182791 262.284348,103.300765 263.495564,103.536716 C264.70678,103.772667 265.71349,104.040075 266.515724,104.338946 C267.317958,104.637817 267.978611,104.905225 268.497704,105.141176 C269.016796,105.377127 269.496556,105.495101 269.936998,105.495101 C270.566202,105.495101 271.061692,105.377127 271.423483,105.141176 C271.785275,104.905225 272.154927,104.504114 272.532448,103.937831 L277.251448,103.937831 L277.251448,115.263431 Z M317.738193,114.555581 L311.603493,114.791531 C311.603493,111.488214 310.109158,109.836581 307.120443,109.836581 L299.947563,109.836581 L299.947563,118.236401 L301.740783,118.236401 C302.810429,118.236401 303.486812,116.600497 303.769953,113.328641 L309.055233,113.328641 L308.347383,128.05192 L303.156483,128.05192 C302.810422,124.654223 302.228417,122.9554 301.410453,122.9554 L299.947563,122.9554 L299.947563,133.10125 L305.421603,133.10125 C310.077706,133.10125 312.484372,130.474367 312.641673,125.22052 L318.870753,125.55085 L317.738193,139 L283.808584,139 L283.808584,134.04505 C286.608538,134.04505 288.008494,133.321477 288.008494,131.87431 L288.008494,111.063521 C288.008494,109.616354 286.608538,108.892781 283.808584,108.892781 L283.808584,103.937831 L317.738193,103.937831 L317.738193,114.555581 Z M323.681858,103.937831 L343.076948,103.937831 C346.191503,103.937831 348.849847,104.134454 351.052058,104.527706 C353.254269,104.920958 355.047471,105.70745 356.431717,106.887206 C357.815964,108.066962 358.830539,109.74219 359.475472,111.912941 C360.120406,114.083692 360.442867,116.962253 360.442867,120.548711 C360.442867,124.292469 360.120406,127.359788 359.475472,129.75076 C358.830539,132.141732 357.815964,134.021448 356.431717,135.389965 C355.047471,136.758482 353.254269,137.702272 351.052058,138.221365 C348.849847,138.740458 346.191503,139 343.076948,139 L323.681858,139 L323.681858,134.04505 C326.481812,134.04505 327.881768,133.321477 327.881768,131.87431 L327.881768,111.063521 C327.881768,109.616354 326.481812,108.892781 323.681858,108.892781 L323.681858,103.937831 Z M339.820838,133.10125 L343.831988,133.10125 C344.870173,133.10125 345.688125,132.896762 346.285868,132.48778 C346.883611,132.078798 347.324046,131.386685 347.607188,130.41142 C347.890329,129.436155 348.071222,128.154173 348.149873,126.565435 C348.228523,124.976697 348.267848,123.018332 348.267848,120.690281 C348.267848,118.362229 348.228523,116.482513 348.149873,115.051076 C348.071222,113.619639 347.890329,112.51855 347.607188,111.747776 C347.324046,110.977002 346.883611,110.465782 346.285868,110.214101 C345.688125,109.96242 344.870173,109.836581 343.831988,109.836581 L339.820838,109.836581 L339.820838,133.10125 Z" id="BASED" fill="#24346D"></path>
            </g>
        </g>
    </g>
</svg>