<?xml version="1.0" encoding="UTF-8" standalone="no"?>
<svg width="308px" height="281px" viewBox="0 0 308 281" version="1.1" xmlns="http://www.w3.org/2000/svg" xmlns:xlink="http://www.w3.org/1999/xlink">
    <!-- Generator: Sketch 3.8.3 (29802) - http://www.bohemiancoding.com/sketch -->
    <title>Group 4</title>
    <desc>Created with Sketch.</desc>
    <defs>
        <path d="M0.359580052,4.8243764 C0.359580052,3.77082885 1.02126751,2.7164715 2.34731053,1.91234182 C3.67201949,1.10740234 5.40894907,0.705742396 7.14454461,0.705742396 L217.499791,0.705742396 C219.23672,0.705742396 220.972316,1.10740234 222.297025,1.91234182 C223.623068,2.7164715 224.286089,3.77082885 224.286089,4.8243764 L224.286089,191.107131 L112.322168,232.448143 L0.359580052,191.107131 L0.359580052,4.8243764 Z" id="path-1"></path>
        <path d="M143.762601,0.20853852 L4.01638406,0.20853852 C2.10269192,0.20853852 0.551181102,1.76009106 0.551181102,3.67423467 L0.551181102,100.135462 C0.551181102,102.048309 2.10269192,103.597915 4.01638406,103.597915 L56.566396,103.597915 L56.566396,111.910591 C56.566396,112.033833 56.5903901,112.144751 56.6027114,112.263777 L49.0617527,112.263777 C47.3085617,112.263777 45.8854518,113.687223 45.8854518,115.440503 C45.8854518,117.194432 47.3085617,118.619175 49.0617527,118.619175 L100.456481,118.619175 C102.209348,118.619175 103.632458,117.195729 103.632458,115.440503 C103.632458,113.687223 102.209348,112.263777 100.456481,112.263777 L92.9158464,112.263777 C92.9262223,112.148643 92.9531346,112.033833 92.9531346,111.910591 L92.9531346,103.597915 L143.770059,103.597915 C145.682454,103.597915 147.235586,102.047011 147.235586,100.135462 L147.235586,3.67423467 C147.229749,1.76009106 145.679536,0.20853852 143.762601,0.20853852 L143.762601,0.20853852 Z" id="path-3"></path>
        <mask id="mask-4" maskContentUnits="userSpaceOnUse" maskUnits="objectBoundingBox" x="0" y="0" width="146.684405" height="118.410637" fill="white">
            <use xlink:href="#path-3"></use>
        </mask>
        <linearGradient x1="50%" y1="0%" x2="50%" y2="100%" id="linearGradient-5">
            <stop stop-color="#5681B3" offset="0%"></stop>
            <stop stop-color="#314C83" offset="100%"></stop>
        </linearGradient>
        <path d="M29.7221944,6.05762506 L29.3556707,6.05762506 L29.3556707,2.11508162 C29.3555526,1.38369753 28.7631397,0.78962536 28.0323357,0.78962536 L1.34352679,0.78962536 C0.613077086,0.78962536 0.0203099497,1.38369753 0.0203099497,2.11508162 L0.0203099497,49.597095 C0.0203099497,50.3287156 0.613077086,50.922433 1.34352679,50.922433 L28.0323357,50.922433 C28.7630216,50.922433 29.3555526,50.3285973 29.3555526,49.597095 L29.3555526,42.1751549 L29.7220763,42.1751549 L29.7220763,37.8676291 L29.3555526,37.8676291 L29.3555526,19.8089233 L29.7221944,19.8089233 L29.7221944,6.05762506 Z" id="path-6"></path>
        <mask id="mask-7" maskContentUnits="userSpaceOnUse" maskUnits="objectBoundingBox" x="0" y="0" width="29.7018844" height="50.1328076" fill="white">
            <use xlink:href="#path-6"></use>
        </mask>
        <path d="M47.6652541,31.1616658 L47.6652541,9.22921544 L47.0803758,9.22921544 L47.0803758,2.94110818 C47.0801873,1.77459684 46.1348476,0.827089337 44.9686711,0.827089337 L2.3801462,0.827089337 C1.21453497,0.827089337 0.268629967,1.77459684 0.268629967,2.94110818 L0.268629967,78.6719143 C0.268629967,79.8388029 1.21453497,80.7857445 2.3801462,80.7857445 L44.9686711,80.7857445 C46.1346592,80.7857445 47.0801873,79.8386143 47.0801873,78.6719143 L47.0801873,66.8343897 L47.6650657,66.8343897 L47.6650657,59.9641586 L47.0801873,59.9641586 L47.0801873,31.1616658 L47.6652541,31.1616658 L47.6652541,31.1616658 Z" id="path-8"></path>
        <mask id="mask-9" maskContentUnits="userSpaceOnUse" maskUnits="objectBoundingBox" x="0" y="0" width="47.3966241" height="79.9586552" fill="white">
            <use xlink:href="#path-8"></use>
        </mask>
    </defs>
    <g id="Page-1" stroke="none" stroke-width="1" fill="none" fill-rule="evenodd">
        <g id="Desktop" transform="translate(-106.000000, -1023.000000)">
            <g id="Group-4" transform="translate(106.000000, 1023.000000)">
                <path d="M281.777866,205.407761 C281.777866,209.542591 277.933533,214.436202 273.237686,216.284161 L162.935374,259.674772 C158.233266,261.521112 150.545852,261.521112 145.842492,259.674772 L35.5464413,216.284161 C30.8443333,214.436202 27,209.542591 27,205.407761 L27,7.51573775 C27,3.38252738 31.297639,0 36.554483,0 L272.223383,0 C277.482732,0 281.777866,3.38252738 281.777866,7.51573775 L281.777866,205.407761" id="Fill-57" fill="#24346D"></path>
                <path d="M154.267356,250.988876 C153.972826,250.988876 153.73905,250.97268 153.588483,250.956484 L38.1536288,207.905988 C37.4655103,207.37719 36.7007874,206.207032 36.7007874,205.637744 L36.7007874,14.6468213 C36.7007874,13.592464 37.3572076,12.5389164 38.6687271,11.7339769 C39.9815675,10.9298473 41.6998826,10.5273775 43.4195186,10.5273775 L265.116515,10.5273775 C266.83483,10.5273775 268.554466,10.9298473 269.865985,11.7339769 C271.178826,12.5389164 271.833925,13.592464 271.833925,14.6468213 L271.833925,205.637744 C271.833925,206.207032 271.069202,207.37719 270.381084,207.905988 L154.946229,250.956484 C154.795662,250.97268 154.563208,250.988876 154.267356,250.988876" id="Fill-58" fill="#FFFFFF"></path>
                <g id="Group-10" transform="translate(42.000000, 14.000000)">
                    <mask id="mask-2" fill="white">
                        <use xlink:href="#path-1"></use>
                    </mask>
                    <use id="Fill-59" fill-opacity="0.800000012" fill="#24346D" xlink:href="#path-1"></use>
                    <g id="Group-2" style="mix-blend-mode: multiply;" mask="url(#mask-2)">
                        <g transform="translate(23.803150, 9.484150)">
                            <g id="Group-11" transform="translate(14.000000, 0.000000)">
                                <use id="Shape" stroke="#444B64" mask="url(#mask-4)" stroke-width="4" fill="#FFFFFF" xlink:href="#path-3"></use>
                                <path d="M134.130558,88.0713323 L14.0154113,88.0713323 C12.1030162,88.0713323 10.5511811,86.5201041 10.5511811,84.6053119 L10.5511811,11.4650475 C10.5511811,9.55220118 12.1030162,8 14.0154113,8 L134.130558,8 C136.042953,8 137.594464,9.55187686 137.594464,11.4650475 L137.594464,84.6053119 C137.594464,86.5197798 136.043277,88.0713323 134.130558,88.0713323 Z" id="Path" fill="url(#linearGradient-5)"></path>
                                <polyline id="Fill-476" fill="#FFFFFF" points="86.0585541 48.7055852 104.471988 36.6889189 81.3367371 36.6889189 74.0088296 18 66.6891867 36.6889189 43.5511811 36.6889189 61.9701245 48.7055852 53.6945478 69.805 74.0088296 56.5541598 94.3286211 69.805 86.0585541 48.7055852"></polyline>
                            </g>
                            <g id="Group-12" transform="translate(0.000000, 81.000000)">
                                <use id="Shape" stroke="#444B64" mask="url(#mask-7)" stroke-width="4" fill="#FFFFFF" xlink:href="#path-6"></use>
                                <path d="M25.9868475,43.1524232 C25.9868475,43.8842803 25.4639786,44.4777612 24.8187317,44.4777612 L4.56506738,44.4777612 C3.92034168,44.4777612 3.39684734,43.8842803 3.39684734,43.1524232 L3.39684734,5.56325483 C3.39684734,4.8316342 3.92023744,4.23779857 4.56506738,4.23779857 L24.8186275,4.23779857 C25.4638744,4.23779857 25.9867433,4.8316342 25.9867433,5.56325483 L25.9867433,43.1524232 L25.9868475,43.1524232 Z" id="Path" fill="url(#linearGradient-5)"></path>
                                <polyline id="Fill-476" fill="#FFFFFF" points="18.3078968 19.6803459 23.6394576 16.2009521 16.9407073 16.2009521 14.8189311 10.7896254 12.699548 16.2009521 6 16.2009521 11.3331561 19.6803459 8.93698484 25.7896254 14.8189311 21.9528798 20.7024727 25.7896254 18.3078968 19.6803459"></polyline>
                            </g>
                            <g id="Group-13" transform="translate(138.000000, 51.000000)">
                                <use id="Shape" stroke="#444B64" mask="url(#mask-9)" stroke-width="4" fill="#FFFFFF" xlink:href="#path-8"></use>
                                <path d="M43.0968595,68.3930707 C43.0968595,69.5603365 42.198099,70.5069009 41.0889827,70.5069009 L6.27491375,70.5069009 C5.1666933,70.5069009 4.26685772,69.5603365 4.26685772,68.3930707 L4.26685772,8.44072621 C4.26685772,7.27383761 5.16651412,6.32670737 6.27491375,6.32670737 L41.0888035,6.32670737 C42.1979199,6.32670737 43.0966804,7.27383761 43.0966804,8.44072621 L43.0966804,68.3930707 L43.0968595,68.3930707 Z" id="Path" fill="url(#linearGradient-5)"></path>
                                <polygon id="Fill-476" fill="#FFFFFF" points="38.8112803 24.2067224 27.2001131 24.2067224 23.5223678 14.8270893 19.8487703 24.2067224 8.23622047 24.2067224 17.4803577 30.2376716 13.3269942 40.8270893 23.5223678 34.1767304 33.7205066 40.8270893 29.5699083 30.2376716"></polygon>
                            </g>
                        </g>
                    </g>
                </g>
                <path d="M108.623915,132.175843 C105.5639,132.175843 104.033915,132.957835 104.033915,134.521843 L104.033915,149.260843 C104.033915,151.708855 103.795918,153.935833 103.319915,155.941843 C102.843913,157.947853 102.010921,159.656336 100.820915,161.067343 C99.6309093,162.47835 98.0159254,163.574839 95.9759152,164.356843 C93.935905,165.138847 91.334931,165.529843 88.1729152,165.529843 C84.9428991,165.529843 82.2144264,165.138847 79.9874152,164.356843 C77.7604041,163.574839 75.9584221,162.47835 74.5814152,161.067343 C73.2044083,159.656336 72.2099183,157.947853 71.5979152,155.941843 C70.9859122,153.935833 70.6799152,151.708855 70.6799152,149.260843 L70.6799152,134.521843 C70.6799152,132.957835 69.1669304,132.175843 66.1409152,132.175843 L66.1409152,126.820843 L88.7339152,126.820843 L88.7339152,132.175843 C86.7959055,132.175843 85.452919,132.371341 84.7049152,132.762343 C83.9569115,133.153345 83.5829152,133.739839 83.5829152,134.521843 L83.5829152,149.260843 C83.5829152,150.960851 83.6764143,152.405837 83.8634152,153.595843 C84.0504162,154.785849 84.3989127,155.754839 84.9089152,156.502843 C85.4189178,157.250847 86.098911,157.786341 86.9489152,158.109343 C87.7989195,158.432344 88.8869086,158.593843 90.2129152,158.593843 C91.5389219,158.593843 92.6609106,158.432344 93.5789152,158.109343 C94.4969198,157.786341 95.2449123,157.250847 95.8229152,156.502843 C96.4009181,155.754839 96.817414,154.785849 97.0724152,153.595843 C97.3274165,152.405837 97.4549152,150.960851 97.4549152,149.260843 L97.4549152,134.521843 C97.4549152,133.739839 97.0724191,133.153345 96.3074152,132.762343 C95.5424114,132.371341 94.1909249,132.175843 92.2529152,132.175843 L92.2529152,126.820843 L108.623915,126.820843 L108.623915,132.175843 Z M146.029542,139.060843 L140.266542,139.519843 C140.02854,138.193836 139.586545,137.088847 138.940542,136.204843 C138.294538,135.320838 137.487046,134.615345 136.518042,134.088343 C135.549037,133.56134 134.427048,133.178844 133.152042,132.940843 C131.877035,132.702842 130.508549,132.583843 129.046542,132.583843 C128.264538,132.583843 127.533545,132.626342 126.853542,132.711343 C126.173538,132.796343 125.578544,132.949342 125.068542,133.170343 C124.558539,133.391344 124.150543,133.705841 123.844542,134.113843 C123.53854,134.521845 123.385542,135.03184 123.385542,135.643843 C123.385542,136.595848 123.912536,137.31834 124.966542,137.811343 C126.020547,138.304345 127.363533,138.720841 128.995542,139.060843 C130.62755,139.400844 132.438032,139.740841 134.427042,140.080843 C136.416052,140.420844 138.345532,140.91384 140.215542,141.559843 C142.901555,142.477847 144.933035,143.846334 146.310042,145.665343 C147.687048,147.484352 148.375542,149.923827 148.375542,152.983843 C148.375542,154.989853 148.010045,156.766335 147.279042,158.313343 C146.548038,159.860351 145.536548,161.169337 144.244542,162.240343 C142.952535,163.311348 141.43105,164.12734 139.680042,164.688343 C137.929033,165.249346 136.033552,165.529843 133.993542,165.529843 C131.919531,165.529843 130.202548,165.393844 128.842542,165.121843 C127.482535,164.849841 126.352046,164.543844 125.451042,164.203843 C124.550037,163.863841 123.793545,163.557844 123.181542,163.285843 C122.569539,163.013841 121.991544,162.877843 121.447542,162.877843 C120.971539,162.877843 120.555043,163.013841 120.198042,163.285843 C119.84104,163.557844 119.526543,164.033839 119.254542,164.713843 L113.491542,164.713843 L113.491542,151.708843 L119.254542,151.402843 C119.458543,154.054856 120.648531,155.958837 122.824542,157.114843 C125.000552,158.270849 127.873524,158.848843 131.443542,158.848843 C133.483552,158.848843 135.107036,158.576846 136.314042,158.032843 C137.521048,157.48884 138.124542,156.434851 138.124542,154.870843 C138.124542,153.918838 137.674046,153.196345 136.773042,152.703343 C135.872037,152.21034 134.707549,151.810844 133.279542,151.504843 C131.851534,151.198841 130.25355,150.918344 128.485542,150.663343 C126.717533,150.408342 124.96655,150.042845 123.232542,149.566843 C121.328532,149.02284 119.747548,148.368347 118.489542,147.603343 C117.231535,146.838339 116.228545,145.945848 115.480542,144.925843 C114.732538,143.905838 114.205543,142.741349 113.899542,141.432343 C113.59354,140.123336 113.440542,138.652851 113.440542,137.020843 C113.440542,135.524835 113.695539,134.105349 114.205542,132.762343 C114.715544,131.419336 115.497536,130.246348 116.551542,129.243343 C117.605547,128.240338 118.931534,127.449846 120.529542,126.871843 C122.12755,126.29384 124.031531,126.004843 126.241542,126.004843 C128.213551,126.004843 129.854035,126.132342 131.163042,126.387343 C132.472048,126.642344 133.560037,126.931341 134.427042,127.254343 C135.294046,127.577344 136.008039,127.866342 136.569042,128.121343 C137.130044,128.376344 137.648539,128.503843 138.124542,128.503843 C138.804545,128.503843 139.34004,128.376344 139.731042,128.121343 C140.122044,127.866342 140.52154,127.432846 140.929542,126.820843 L146.029542,126.820843 L146.029542,139.060843 Z M190.014168,138.295843 L183.384168,138.550843 C183.384168,134.980825 181.769184,133.195843 178.539168,133.195843 L170.787168,133.195843 L170.787168,142.273843 L172.725168,142.273843 C173.881174,142.273843 174.612166,140.50586 174.918168,136.969843 L180.630168,136.969843 L179.865168,152.881843 L174.255168,152.881843 C173.881166,149.209824 173.252172,147.373843 172.368168,147.373843 L170.787168,147.373843 L170.787168,158.338843 L176.703168,158.338843 C181.735193,158.338843 184.336167,155.499871 184.506168,149.821843 L191.238168,150.178843 L190.014168,164.713843 L153.345168,164.713843 L153.345168,159.358843 C156.371183,159.358843 157.884168,158.576851 157.884168,157.012843 L157.884168,134.521843 C157.884168,132.957835 156.371183,132.175843 153.345168,132.175843 L153.345168,126.820843 L190.014168,126.820843 L190.014168,138.295843 Z M232.825794,165.070843 C230.921785,165.070843 229.298301,164.824345 227.955294,164.331343 C226.612288,163.83834 225.507299,163.175347 224.640294,162.342343 C223.77329,161.509339 223.144296,160.531848 222.753294,159.409843 C222.362292,158.287837 222.166794,157.097849 222.166794,155.839843 L222.166794,153.034843 C222.166794,151.844837 222.107295,150.875847 221.988294,150.127843 C221.869294,149.379839 221.665296,148.801845 221.376294,148.393843 C221.087293,147.985841 220.679297,147.713843 220.152294,147.577843 C219.625292,147.441842 218.953798,147.373843 218.137794,147.373843 L214.108794,147.373843 L214.108794,157.012843 C214.108794,158.576851 215.995775,159.358843 219.769794,159.358843 L219.769794,164.713843 L196.666794,164.713843 L196.666794,159.358843 C199.692809,159.358843 201.205794,158.576851 201.205794,157.012843 L201.205794,134.521843 C201.205794,132.957835 199.692809,132.175843 196.666794,132.175843 L196.666794,126.820843 L223.237794,126.820843 C224.903803,126.820843 226.535786,126.931342 228.133794,127.152343 C229.731802,127.373344 231.151288,127.823839 232.392294,128.503843 C233.633301,129.183846 234.627791,130.144337 235.375794,131.385343 C236.123798,132.626349 236.497794,134.266833 236.497794,136.306843 C236.497794,137.632849 236.293796,138.797338 235.885794,139.800343 C235.477792,140.803348 234.942298,141.661839 234.279294,142.375843 C233.616291,143.089846 232.859799,143.667841 232.009794,144.109843 C231.15979,144.551845 230.275799,144.874842 229.357794,145.078843 C231.193804,145.554845 232.604789,146.438836 233.590794,147.730843 C234.576799,149.022849 235.069794,150.97783 235.069794,153.595843 L235.069794,157.114843 C235.069794,157.862847 235.222793,158.415341 235.528794,158.772343 C235.834796,159.129345 236.225792,159.307843 236.701794,159.307843 C237.211797,159.307843 237.619793,159.129345 237.925794,158.772343 C238.231796,158.415341 238.384794,157.862847 238.384794,157.114843 L238.384794,154.666843 L242.107794,154.666843 L242.107794,157.012843 C242.107794,158.134848 241.929296,159.188838 241.572294,160.174843 C241.215293,161.160848 240.654298,162.010839 239.889294,162.724843 C239.124291,163.438846 238.1638,164.008341 237.007794,164.433343 C235.851789,164.858345 234.457803,165.070843 232.825794,165.070843 L232.825794,165.070843 Z M214.108794,142.273843 L218.749794,142.273843 C219.667799,142.273843 220.424291,142.188844 221.019294,142.018843 C221.614297,141.848842 222.090293,141.568345 222.447294,141.177343 C222.804296,140.786341 223.050794,140.259346 223.186794,139.596343 C223.322795,138.933339 223.390794,138.108848 223.390794,137.122843 C223.390794,135.966837 223.067798,135.065846 222.421794,134.419843 C221.775791,133.77384 220.551803,133.450843 218.749794,133.450843 L214.108794,133.450843 L214.108794,142.273843 Z" id="USER-Copy" fill="#FFFFFF" transform="translate(154.787355, 145.767343) rotate(-7.000000) translate(-154.787355, -145.767343) "></path>
                <g id="Group-3" transform="translate(0.000000, 159.000000)">
                    <polyline id="Fill-73" fill="#850B24" points="236.052493 42.1095101 307.91916 44.8199049 307.91916 116.379349 236.052493 103.912504 236.052493 42.1095101"></polyline>
                    <polyline id="Fill-74" fill="#510716" points="236.052493 42.7532997 283.465092 19.4351585 276.488609 95.8736369 236.052493 104.556294 236.052493 42.7532997"></polyline>
                    <polyline id="Fill-75" fill="#9D0D2B" points="276.461123 95.8736369 210.992126 82.8941902 210.992126 21.091196 283.437606 19.4351585 276.461123 95.8736369"></polyline>
                    <polygon id="Fill-76" fill="#510716" points="210.992126 82.7257522 210.992126 20.9227579 270.12157 2.15329328 263.42569 64.2923141"></polygon>
                    <polyline id="Fill-77" fill="#850B24" points="46.327727 111.778075 0 121.971816 0 68.4911182 52.4311391 51.0172911 46.327727 111.778075"></polyline>
                    <polyline id="Fill-78" fill="#510716" points="45.8451129 111.913311 12.1259843 102.879202 12.1259843 49.3976945 51.9485249 51.1525274 45.8451129 111.913311"></polyline>
                    <polyline id="Fill-79" fill="#9D0D2B" points="79.5634331 89.9143314 12.1259843 102.813608 12.1259843 49.3321009 85.6652283 29.1527378 79.5634331 89.9143314"></polyline>
                    <polyline id="Fill-80" fill="#510716" points="79.5076535 89.9143314 48.503937 84.0675879 48.503937 30.5868905 85.6094488 29.1527378 79.5076535 89.9143314"></polyline>
                    <polygon id="Fill-81" fill="#B81032" points="48.503937 84.0935014 48.503937 30.612804 269.925539 0.416142375 263.531591 64.2923141"></polygon>
                    <path d="M69.6779554,54.6072069 L69.6779554,28.1579545 L87.0076083,28.1579545 L87.0076083,30.4676075 L72.2811222,30.4676075 L72.2811222,40.1905017 L84.7019463,40.1905017 L84.7019463,42.3511449 L72.2811222,42.3511449 L72.2811222,54.6072069 L69.6779554,54.6072069 Z M92.2865262,54.6072069 L92.2865262,28.1579545 L103.442955,28.1579545 C104.583396,28.1579545 105.63085,28.4000931 106.585349,28.8843776 C107.539849,29.3686622 108.364176,30.0019478 109.058358,30.7842535 C109.752539,31.5665593 110.291761,32.4544009 110.67604,33.447805 C111.060319,34.4412091 111.252455,35.4470157 111.252455,36.4652549 C111.252455,37.4338239 111.109902,38.3589176 110.824792,39.2405638 C110.539682,40.1222099 110.143013,40.9169213 109.634773,41.6247217 C109.126533,42.3325222 108.512936,42.9285557 107.793962,43.4128402 C107.074989,43.8971247 106.269255,44.2261849 105.376736,44.4000306 L111.847465,54.6072069 L108.909605,54.6072069 L102.699193,44.8470602 L94.889693,44.8470602 L94.889693,54.6072069 L92.2865262,54.6072069 Z M94.889693,42.5374072 L103.517331,42.5374072 C104.285889,42.5374072 104.986258,42.3697728 105.618459,42.0344989 C106.25066,41.699225 106.789882,41.2459912 107.236141,40.6747838 C107.6824,40.1035764 108.029486,39.4578734 108.277408,38.7376555 C108.52533,38.0174375 108.649289,37.2599782 108.649289,36.4652549 C108.649289,35.6705316 108.506736,34.9068637 108.221626,34.1742281 C107.936515,33.4415926 107.552242,32.8020983 107.068795,32.255726 C106.585347,31.7093537 106.015135,31.274746 105.358142,30.9518896 C104.701149,30.6290333 104.013176,30.4676075 103.294203,30.4676075 L94.889693,30.4676075 L94.889693,42.5374072 Z M117.275135,54.6072069 L117.275135,28.1579545 L119.878302,28.1579545 L119.878302,54.6072069 L117.275135,54.6072069 Z M144.941287,52.2975539 L144.941287,54.6072069 L127.202565,54.6072069 L127.202565,28.1579545 L144.606594,28.1579545 L144.606594,30.4676075 L129.805732,30.4676075 L129.805732,40.0042394 L142.710001,40.0042394 L142.710001,42.202135 L129.805732,42.202135 L129.805732,52.2975539 L144.941287,52.2975539 Z M153.158065,33.0007754 L153.158065,54.6072069 L150.554898,54.6072069 L150.554898,28.1579545 L152.563055,28.1579545 L170.04146,50.1741632 L170.04146,28.195207 L172.644627,28.195207 L172.644627,54.6072069 L170.376153,54.6072069 L153.158065,33.0007754 Z M179.96889,54.6072069 L179.96889,28.1579545 L188.931222,28.1579545 C191.038558,28.1579545 192.87935,28.5056407 194.453654,29.2010236 C196.027958,29.8964065 197.341924,30.8401263 198.395592,32.0322112 C199.44926,33.2242961 200.242598,34.6212497 200.77563,36.2231139 C201.308662,37.824978 201.575174,39.5323657 201.575174,41.3453282 C201.575174,43.3569716 201.277672,45.1761156 200.68266,46.8028148 C200.087647,48.4295141 199.238528,49.820259 198.135275,50.9750912 C197.032023,52.1299235 195.705661,53.0239738 194.156149,53.6572689 C192.606637,54.2905641 190.865012,54.6072069 188.931222,54.6072069 L179.96889,54.6072069 Z M198.972008,41.3453282 C198.972008,39.7558816 198.748881,38.2968412 198.302622,36.9681632 C197.856362,35.6394852 197.205577,34.4908789 196.350247,33.5223099 C195.494916,32.5537409 194.447462,31.8024903 193.207853,31.2685356 C191.968243,30.7345809 190.542714,30.4676075 188.931222,30.4676075 L182.572057,30.4676075 L182.572057,52.2975539 L188.931222,52.2975539 C190.567506,52.2975539 192.011629,52.0181631 193.263635,51.4593733 C194.51564,50.9005835 195.563094,50.1307069 196.406029,49.1497203 C197.248963,48.1687337 197.887353,47.0139188 198.321216,45.6852408 C198.755079,44.3565628 198.972008,42.9099397 198.972008,41.3453282 L198.972008,41.3453282 Z M207.263161,54.6072069 L207.263161,28.1579545 L209.866328,28.1579545 L209.866328,52.2975539 L225.113447,52.2975539 L225.113447,54.6072069 L207.263161,54.6072069 Z M225.297596,28.1579545 L233.925235,42.3883973 L242.627249,28.1579545 L245.453544,28.1579545 L235.226818,44.7725553 L235.226818,54.6072069 L232.623651,54.6072069 L232.623651,44.6980504 L222.434113,28.1579545 L225.297596,28.1579545 Z" id="FRIENDLY" fill="#FFFFFF" transform="translate(157.565750, 41.382581) rotate(-7.000000) translate(-157.565750, -41.382581) "></path>
                </g>
            </g>
        </g>
    </g>
</svg>