<svg width="370" height="169" viewBox="0 0 370 169" version="1.1" xmlns="http://www.w3.org/2000/svg"><title>Group 2</title><g id="Page-1" stroke="none" stroke-width="1" fill="none" fill-rule="evenodd"><g id="Desktop" transform="translate(-552 -1469)"><g id="Group-2" transform="translate(561 1479)"><g id="Group"><path d="M.91 90.067c0 37.686 30.65 68.347 68.323 68.347 37.675 0 68.324-30.661 68.324-68.347 0-37.686-30.65-68.347-68.324-68.347C31.56 21.72.91 52.38.91 90.067z" id="Path" fill="#9D0D2B"/><path d="M6.192 90.296c0-34.9 28.383-63.292 63.27-63.292 34.888 0 63.271 28.392 63.271 63.292 0 34.9-28.383 63.293-63.271 63.293-34.887 0-63.27-28.393-63.27-63.293z" id="Fill-453" fill="#FFF"/><path d="M69.31 30.526c-32.864 0-59.597 26.742-59.597 59.618 0 32.875 26.733 59.623 59.597 59.623 32.864 0 59.597-26.748 59.597-59.623 0-32.876-26.733-59.618-59.597-59.618" id="Fill-454" fill="#9D0D2B"/><path d="M67.789 78.271S107.939 24.218 169.712 0c0 0-73.611 58.745-99.35 125.41 0 0-6.233-36.958-69.035-62.705 0 0 32.495-6.819 66.462 15.566z" id="Fill-3" stroke="#9D0D2B" stroke-width="6" fill="#FFF"/></g><path d="M167.933 71V39.625h12.992c1.355 0 2.6.287 3.734.862a9.84 9.84 0 0 1 2.938 2.253 10.693 10.693 0 0 1 1.945 3.16 9.565 9.565 0 0 1 .707 3.58c0 1.296-.221 2.54-.663 3.734a10.105 10.105 0 0 1-1.856 3.16 9.333 9.333 0 0 1-2.85 2.209c-1.105.56-2.335.84-3.69.84h-10.164V71h-3.093zm3.093-14.318h10.031c.914 0 1.746-.198 2.497-.596a6.078 6.078 0 0 0 1.922-1.591 7.491 7.491 0 0 0 1.238-2.298c.294-.869.442-1.775.442-2.718 0-.972-.17-1.892-.509-2.761a7.502 7.502 0 0 0-1.37-2.276 6.256 6.256 0 0 0-2.032-1.525 5.682 5.682 0 0 0-2.453-.552h-9.766v14.317zM196.256 71V39.625h13.258c1.355 0 2.6.287 3.734.862a9.84 9.84 0 0 1 2.938 2.253 10.335 10.335 0 0 1 1.923 3.16 9.834 9.834 0 0 1 .684 3.58c0 1.148-.169 2.246-.508 3.292a10.178 10.178 0 0 1-1.414 2.828 8.555 8.555 0 0 1-2.187 2.12 7.735 7.735 0 0 1-2.873 1.172L219.501 71h-3.492l-7.38-11.578h-9.28V71h-3.092zm3.094-14.318h10.252c.913 0 1.745-.198 2.497-.596a5.956 5.956 0 0 0 1.922-1.613 7.847 7.847 0 0 0 1.237-2.298 8.21 8.21 0 0 0 .442-2.696c0-.942-.17-1.848-.508-2.717a7.502 7.502 0 0 0-1.37-2.276 6.538 6.538 0 0 0-2.033-1.547 5.5 5.5 0 0 0-2.452-.574h-9.987v14.317zm39.238 14.539c-2.18 0-4.175-.45-5.987-1.348a14.885 14.885 0 0 1-4.662-3.58 16.275 16.275 0 0 1-3.005-5.103 16.843 16.843 0 0 1-1.06-5.877c0-2.092.375-4.095 1.126-6.01a16.567 16.567 0 0 1 3.115-5.082 15.063 15.063 0 0 1 4.685-3.513c1.797-.87 3.741-1.304 5.833-1.304 2.18 0 4.176.464 5.987 1.392a15.038 15.038 0 0 1 4.64 3.646 16.851 16.851 0 0 1 2.983 5.104c.707 1.9 1.06 3.837 1.06 5.81a16.31 16.31 0 0 1-1.126 6.01c-.751 1.915-1.782 3.602-3.093 5.06a14.962 14.962 0 0 1-4.662 3.491c-1.798.87-3.742 1.304-5.834 1.304zm-11.622-15.908c0 1.708.28 3.35.84 4.927a13.406 13.406 0 0 0 2.386 4.198 11.73 11.73 0 0 0 3.668 2.916c1.414.722 2.99 1.083 4.728 1.083 1.768 0 3.374-.383 4.817-1.149a11.745 11.745 0 0 0 3.668-3.005 13.885 13.885 0 0 0 2.32-4.198c.545-1.561.817-3.152.817-4.772 0-1.71-.287-3.352-.861-4.928-.575-1.576-1.378-2.968-2.409-4.176a11.875 11.875 0 0 0-3.667-2.894c-1.414-.722-2.976-1.083-4.685-1.083-1.767 0-3.373.376-4.816 1.127a11.48 11.48 0 0 0-3.668 2.983 13.885 13.885 0 0 0-2.32 4.198 14.386 14.386 0 0 0-.818 4.773zm29.031 11.754c.648.442 1.48.825 2.497 1.149 1.016.324 2.158.486 3.425.486 1.59 0 2.865-.287 3.822-.862.958-.574 1.687-1.421 2.187-2.54.501-1.12.825-2.497.973-4.132.147-1.635.22-3.499.22-5.59V39.625h3.094v15.953c0 2.386-.11 4.559-.332 6.518-.22 1.959-.684 3.63-1.391 5.015a7.6 7.6 0 0 1-3.094 3.226c-1.355.766-3.181 1.15-5.48 1.15-2.65 0-4.92-.649-6.805-1.945l.884-2.475zM301.6 68.26V71h-21.078V39.625h20.68v2.74h-17.587v11.313h15.334v2.607h-15.334V68.26h17.985zm3.93-13.168c0-1.886.332-3.764.995-5.635a15.62 15.62 0 0 1 2.895-5.015c1.266-1.473 2.828-2.674 4.684-3.602 1.856-.928 3.962-1.392 6.319-1.392 2.799 0 5.192.634 7.18 1.9 1.99 1.267 3.455 2.917 4.398 4.95l-2.43 1.502c-.502-1.03-1.113-1.9-1.835-2.607a10.197 10.197 0 0 0-2.32-1.723 9.803 9.803 0 0 0-2.563-.95 12.289 12.289 0 0 0-2.607-.288c-1.885 0-3.55.383-4.993 1.15a11.495 11.495 0 0 0-3.646 3.004 13.114 13.114 0 0 0-2.232 4.176 15.19 15.19 0 0 0-.75 4.706c0 1.739.301 3.403.905 4.994.604 1.59 1.429 2.997 2.475 4.22a11.901 11.901 0 0 0 3.712 2.917c1.429.721 2.983 1.082 4.662 1.082.884 0 1.79-.11 2.717-.331a10.474 10.474 0 0 0 2.696-1.06c.87-.487 1.672-1.09 2.408-1.813.737-.721 1.356-1.598 1.856-2.629l2.563 1.326a9.593 9.593 0 0 1-2.12 3.115 13.946 13.946 0 0 1-3.05 2.276 15.196 15.196 0 0 1-3.557 1.414 14.688 14.688 0 0 1-3.69.486c-2.15 0-4.124-.471-5.921-1.414a15.53 15.53 0 0 1-4.64-3.69 17.123 17.123 0 0 1-3.027-5.17 16.716 16.716 0 0 1-1.083-5.9zm55.192-12.727h-11.18V71h-3.093V42.365h-11.18v-2.74h25.453v2.74z" id="PROJECT" fill="#9D0D2B"/><g id="Group" transform="translate(222 76.5)" fill="#24346D"><path id="Fill-239" d="M0 14.99h26.402v-1.758H0z"/><path d="M26.402 13.283v.879H.472v-.879h25.93zM0 15.04h26.875v-2.635H0v2.635z" id="Fill-240"/><path id="Fill-241" d="M55.469 14.99h26.403v-1.758H55.469z"/><path d="M81.872 13.283v.879h-25.93v-.879h25.93zM55.469 15.04h26.876v-2.635H55.469v2.635z" id="Fill-242"/><path id="Fill-243" d="M53.622 7.55h-9.358L41.3 0l-2.963 7.55h-9.36l7.454 4.858-3.349 8.526 8.218-5.353 8.218 5.353-3.347-8.526z"/></g><path d="M165.746 103.938h21.613c1.982 0 3.744.094 5.285.283 1.542.189 2.832.59 3.87 1.203 1.038.614 1.825 1.503 2.36 2.667.534 1.164.802 2.705.802 4.624 0 1.227-.166 2.273-.496 3.138-.33.865-.794 1.589-1.392 2.171a6.747 6.747 0 0 1-2.147 1.392c-.834.346-1.738.598-2.714.755 2.863.252 5.09 1.054 6.678 2.407 1.589 1.353 2.383 3.35 2.383 5.993 0 2.013-.228 3.689-.684 5.026-.456 1.337-1.212 2.406-2.265 3.209-1.054.802-2.439 1.368-4.153 1.699-1.715.33-3.83.495-6.347.495h-22.793v-4.955c2.8 0 4.2-.724 4.2-2.17v-20.34c0-1.447-1.4-2.17-4.2-2.17v-5.427zm16.139 28.927h3.303c.913 0 1.66-.126 2.242-.377.582-.252 1.038-.598 1.368-1.038.33-.44.559-.952.685-1.534a8.808 8.808 0 0 0 .188-1.864c0-.755-.063-1.44-.188-2.053-.126-.613-.354-1.14-.685-1.58-.33-.441-.786-.78-1.368-1.015-.582-.236-1.33-.354-2.242-.354h-3.303v9.815zm0-14.629h2.076c.787 0 1.416-.102 1.888-.306.472-.205.834-.504 1.085-.897.252-.393.417-.889.496-1.486.078-.598.118-1.29.118-2.077 0-.912-.268-1.628-.802-2.147-.535-.519-1.463-.779-2.785-.779h-2.076v7.692zm22.743 15.809c1.416 0 2.407-.118 2.973-.354.567-.236.944-.574 1.133-1.014l9.343-28.74h12.175l8.683 28.692c.378.944 1.636 1.416 3.776 1.416V139h-20.575v-4.955h3.114c.913 0 1.369-.267 1.369-.802a.89.89 0 0 0-.047-.283 4.534 4.534 0 0 1-.095-.33l-.708-2.502h-11.042l-.66 2.124a1.923 1.923 0 0 0-.142.66c0 .756.708 1.133 2.123 1.133h2.501V139h-13.873l-.048-4.955zm11.562-8.73h8.258l-3.87-14.157-4.388 14.157zm61.061-10.052l-5.332.425c-.22-1.227-.63-2.25-1.227-3.067a6.714 6.714 0 0 0-2.241-1.959c-.897-.487-1.935-.841-3.115-1.061-1.18-.22-2.446-.33-3.799-.33-.723 0-1.4.039-2.029.117-.63.079-1.18.22-1.652.425-.472.204-.85.495-1.132.873-.283.378-.425.85-.425 1.416 0 .88.488 1.55 1.463 2.005.975.456 2.218.842 3.728 1.156 1.51.315 3.185.63 5.026.944 1.84.315 3.625.771 5.356 1.369 2.485.85 4.365 2.115 5.639 3.799 1.274 1.683 1.911 3.94 1.911 6.771 0 1.856-.338 3.5-1.014 4.932a10.463 10.463 0 0 1-2.808 3.633c-1.196.991-2.604 1.746-4.224 2.265-1.62.52-3.374.779-5.261.779-1.92 0-3.508-.126-4.767-.377-1.258-.252-2.304-.535-3.138-.85a40.458 40.458 0 0 1-2.1-.85c-.566-.251-1.1-.377-1.604-.377-.44 0-.826.126-1.156.378-.33.251-.622.692-.873 1.321h-5.333v-12.033l5.333-.284c.188 2.454 1.29 4.216 3.303 5.286 2.013 1.07 4.672 1.604 7.975 1.604 1.888 0 3.39-.252 4.507-.755 1.117-.503 1.675-1.479 1.675-2.926 0-.88-.417-1.55-1.25-2.005-.834-.456-1.912-.826-3.233-1.11a66.878 66.878 0 0 0-4.436-.778 39.816 39.816 0 0 1-4.86-1.014c-1.762-.504-3.225-1.11-4.39-1.817-1.163-.708-2.091-1.534-2.783-2.478a8.78 8.78 0 0 1-1.463-3.232c-.283-1.211-.425-2.572-.425-4.082 0-1.384.236-2.698.708-3.94a8.715 8.715 0 0 1 2.17-3.257c.976-.928 2.203-1.66 3.681-2.194 1.48-.535 3.24-.802 5.286-.802 1.824 0 3.342.118 4.554.354 1.21.236 2.217.503 3.02.802.802.299 1.463.566 1.982.802.519.236.999.354 1.439.354.63 0 1.125-.118 1.486-.354.362-.236.732-.637 1.11-1.203h4.718v11.325zm40.487-.707l-6.135.236c0-3.304-1.494-4.955-4.483-4.955h-7.172v8.4h1.793c1.07 0 1.746-1.637 2.029-4.908h5.285l-.708 14.723h-5.19c-.347-3.398-.929-5.097-1.747-5.097h-1.462v10.146h5.474c4.656 0 7.062-2.627 7.22-7.88l6.229.33L317.738 139h-33.93v-4.955c2.8 0 4.2-.724 4.2-2.17v-20.811c0-1.448-1.4-2.171-4.2-2.171v-4.955h33.93v10.618zm5.944-10.618h19.395c3.115 0 5.773.196 7.975.59 2.202.393 3.995 1.18 5.38 2.36 1.384 1.179 2.399 2.854 3.043 5.025.645 2.17.968 5.05.968 8.636 0 3.743-.323 6.81-.968 9.202-.644 2.39-1.659 4.27-3.043 5.639-1.385 1.368-3.178 2.312-5.38 2.831-2.202.52-4.86.779-7.975.779h-19.395v-4.955c2.8 0 4.2-.724 4.2-2.17v-20.811c0-1.448-1.4-2.171-4.2-2.171v-4.955zM339.82 133.1h4.011c1.038 0 1.856-.204 2.454-.613.598-.41 1.038-1.101 1.321-2.077.283-.975.464-2.257.543-3.846.079-1.588.118-3.547.118-5.875s-.04-4.207-.118-5.639c-.079-1.431-.26-2.532-.543-3.303-.283-.771-.723-1.282-1.321-1.534s-1.416-.377-2.454-.377h-4.011V133.1z" id="BASED" fill="#24346D"/></g></g></g></svg>