<svg width="308" height="281" viewBox="0 0 308 281" version="1.1" xmlns="http://www.w3.org/2000/svg" xmlns:xlink="http://www.w3.org/1999/xlink"><title>Group 4</title><defs><path d="M.36 4.824c0-1.053.661-2.108 1.987-2.912C3.672 1.107 5.41.706 7.145.706H217.5c1.737 0 3.472.401 4.797 1.206 1.326.804 1.99 1.859 1.99 2.912v186.283l-111.965 41.341L.36 191.108V4.823z" id="path-1"/><path d="M143.763.209H4.016A3.465 3.465 0 0 0 .551 3.674v96.461a3.464 3.464 0 0 0 3.465 3.463h52.55v8.313c0 .123.024.234.037.353h-7.541a3.178 3.178 0 0 0 0 6.355h51.394a3.178 3.178 0 0 0 0-6.355h-7.54c.01-.115.037-.23.037-.353v-8.313h50.817a3.465 3.465 0 0 0 3.466-3.463V3.675a3.474 3.474 0 0 0-3.473-3.466z" id="path-3"/><mask id="mask-4" maskContentUnits="userSpaceOnUse" maskUnits="objectBoundingBox" x="0" y="0" width="146.684" height="118.411" fill="#fff"><use xlink:href="#path-3"/></mask><linearGradient x1="50%" y1="0%" x2="50%" y2="100%" id="linearGradient-5"><stop stop-color="#5681B3" offset="0%"/><stop stop-color="#314C83" offset="100%"/></linearGradient><path d="M29.722 6.058h-.366V2.115c0-.731-.593-1.325-1.324-1.325H1.344C.614.79.02 1.384.02 2.115v47.482c0 .732.593 1.325 1.324 1.325h26.688c.731 0 1.324-.593 1.324-1.325v-7.422h.366v-4.307h-.366v-18.06h.366V6.059z" id="path-6"/><mask id="mask-7" maskContentUnits="userSpaceOnUse" maskUnits="objectBoundingBox" x="0" y="0" width="29.702" height="50.133" fill="#fff"><use xlink:href="#path-6"/></mask><path d="M47.665 31.162V9.229h-.585V2.941A2.114 2.114 0 0 0 44.97.827H2.38A2.114 2.114 0 0 0 .27 2.941v75.73c0 1.168.946 2.115 2.111 2.115H44.97a2.113 2.113 0 0 0 2.111-2.114V66.834h.585v-6.87h-.585V31.162h.585z" id="path-8"/><mask id="mask-9" maskContentUnits="userSpaceOnUse" maskUnits="objectBoundingBox" x="0" y="0" width="47.397" height="79.959" fill="#fff"><use xlink:href="#path-8"/></mask></defs><g id="Page-1" stroke="none" stroke-width="1" fill="none" fill-rule="evenodd"><g id="Desktop" transform="translate(-106 -1023)"><g id="Group-4" transform="translate(106 1023)"><path d="M281.778 205.408c0 4.135-3.844 9.028-8.54 10.876l-110.303 43.39c-4.702 1.847-12.39 1.847-17.093 0l-110.296-43.39C30.844 214.436 27 209.543 27 205.408V7.516C27 3.383 31.298 0 36.554 0h235.67c5.259 0 9.554 3.383 9.554 7.516v197.892" id="Fill-57" fill="#24346D"/><path d="M154.267 250.989c-.294 0-.528-.016-.679-.033l-115.434-43.05c-.688-.529-1.453-1.699-1.453-2.268V14.647c0-1.055.656-2.108 1.968-2.913 1.313-.804 3.03-1.207 4.75-1.207h221.698c1.718 0 3.437.403 4.749 1.207 1.313.805 1.968 1.858 1.968 2.913v190.99c0 .57-.765 1.74-1.453 2.269l-115.435 43.05a6.5 6.5 0 0 1-.679.033" id="Fill-58" fill="#FFF"/><g id="Group-10" transform="translate(42 14)"><mask id="mask-2" fill="#fff"><use xlink:href="#path-1"/></mask><use id="Fill-59" fill-opacity=".8" fill="#24346D" xlink:href="#path-1"/><g transform="translate(23.803 9.484)" id="Group-2" style="mix-blend-mode:multiply" mask="url(#mask-2)"><g id="Group-11" transform="translate(14)"><use id="Shape" stroke="#444B64" mask="url(#mask-4)" stroke-width="4" fill="#FFF" xlink:href="#path-3"/><path d="M134.13 88.071H14.016a3.465 3.465 0 0 1-3.464-3.466v-73.14A3.466 3.466 0 0 1 14.015 8h120.116a3.465 3.465 0 0 1 3.463 3.465v73.14a3.465 3.465 0 0 1-3.463 3.466z" id="Path" fill="url(#linearGradient-5)"/><path id="Fill-476" fill="#FFF" d="M86.059 48.706l18.413-12.017H81.337L74.009 18l-7.32 18.689H43.551l18.42 12.017-8.276 21.099 20.314-13.25 20.32 13.25-8.27-21.1"/></g><g id="Group-12" transform="translate(0 81)"><use id="Shape" stroke="#444B64" mask="url(#mask-7)" stroke-width="4" fill="#FFF" xlink:href="#path-6"/><path d="M25.987 43.152c0 .732-.523 1.326-1.168 1.326H4.565c-.645 0-1.168-.594-1.168-1.326V5.563c0-.731.523-1.325 1.168-1.325H24.82c.645 0 1.168.594 1.168 1.325v37.59z" id="Path" fill="url(#linearGradient-5)"/><path id="Fill-476" fill="#FFF" d="M18.308 19.68l5.331-3.479h-6.698l-2.122-5.411-2.12 5.411H6l5.333 3.48-2.396 6.109 5.882-3.837 5.883 3.837-2.394-6.11"/></g><g id="Group-13" transform="translate(138 51)"><use id="Shape" stroke="#444B64" mask="url(#mask-9)" stroke-width="4" fill="#FFF" xlink:href="#path-8"/><path d="M43.097 68.393c0 1.167-.899 2.114-2.008 2.114H6.275c-1.108 0-2.008-.947-2.008-2.114V8.441c0-1.167.9-2.114 2.008-2.114h34.814c1.109 0 2.008.947 2.008 2.114v59.952z" id="Path" fill="url(#linearGradient-5)"/><path id="Fill-476" fill="#FFF" d="M38.811 24.207h-11.61l-3.679-9.38-3.673 9.38H8.236l9.244 6.03-4.153 10.59 10.195-6.65 10.199 6.65-4.151-10.59z"/></g></g></g><path d="M108.624 132.176c-3.06 0-4.59.782-4.59 2.346v14.739c0 2.448-.238 4.675-.714 6.68-.476 2.007-1.31 3.715-2.5 5.126-1.19 1.411-2.804 2.508-4.844 3.29-2.04.782-4.641 1.173-7.803 1.173-3.23 0-5.959-.391-8.186-1.173-2.227-.782-4.029-1.879-5.406-3.29-1.377-1.41-2.371-3.12-2.983-5.125-.612-2.006-.918-4.233-.918-6.681v-14.74c0-1.563-1.513-2.345-4.54-2.345v-5.355h22.594v5.355c-1.938 0-3.281.195-4.03.586-.747.391-1.121.978-1.121 1.76v14.739c0 1.7.093 3.145.28 4.335.187 1.19.536 2.159 1.046 2.907a4.232 4.232 0 0 0 2.04 1.606c.85.323 1.938.485 3.264.485 1.326 0 2.448-.162 3.366-.485a4.773 4.773 0 0 0 2.244-1.606c.578-.748.994-1.717 1.25-2.907.254-1.19.382-2.635.382-4.335v-14.74c0-.781-.383-1.368-1.148-1.759-.765-.39-2.116-.586-4.054-.586v-5.355h16.37v5.355zm37.406 6.885l-5.763.459c-.238-1.326-.68-2.431-1.326-3.315a7.256 7.256 0 0 0-2.423-2.117c-.969-.527-2.091-.91-3.366-1.147a22.375 22.375 0 0 0-4.105-.357c-.782 0-1.513.042-2.193.127-.68.085-1.275.238-1.785.46a2.97 2.97 0 0 0-1.224.943c-.306.408-.46.918-.46 1.53 0 .952.528 1.674 1.582 2.167 1.054.493 2.397.91 4.029 1.25 1.632.34 3.442.68 5.431 1.02 1.99.34 3.919.833 5.789 1.479 2.686.918 4.717 2.286 6.094 4.105 1.377 1.82 2.066 4.259 2.066 7.319 0 2.006-.366 3.782-1.097 5.33a11.308 11.308 0 0 1-3.034 3.926c-1.292 1.071-2.814 1.887-4.565 2.448-1.751.561-3.646.842-5.686.842-2.074 0-3.791-.136-5.151-.408-1.36-.272-2.491-.578-3.392-.918a43.724 43.724 0 0 1-2.27-.918c-.611-.272-1.19-.408-1.733-.408-.476 0-.893.136-1.25.408-.357.272-.671.748-.943 1.428h-5.763v-13.005l5.763-.306c.204 2.652 1.394 4.556 3.57 5.712 2.176 1.156 5.049 1.734 8.619 1.734 2.04 0 3.663-.272 4.87-.816 1.207-.544 1.81-1.598 1.81-3.162 0-.952-.45-1.675-1.351-2.168-.901-.493-2.065-.892-3.493-1.198a72.276 72.276 0 0 0-4.794-.842 43.03 43.03 0 0 1-5.253-1.096c-1.904-.544-3.485-1.199-4.743-1.964-1.258-.765-2.261-1.657-3.01-2.677-.747-1.02-1.274-2.185-1.58-3.494-.306-1.309-.46-2.78-.46-4.411 0-1.496.256-2.916.766-4.259a9.418 9.418 0 0 1 2.346-3.519c1.054-1.003 2.38-1.793 3.978-2.371 1.598-.578 3.502-.867 5.712-.867 1.972 0 3.612.127 4.921.382 1.309.255 2.397.544 3.264.867.867.323 1.581.612 2.142.867.561.255 1.08.383 1.556.383.68 0 1.215-.128 1.606-.383s.79-.688 1.199-1.3h5.1v12.24zm43.984-.765l-6.63.255c0-3.57-1.615-5.355-4.845-5.355h-7.752v9.078h1.938c1.156 0 1.887-1.768 2.193-5.304h5.712l-.765 15.912h-5.61c-.374-3.672-1.003-5.508-1.887-5.508h-1.58v10.965h5.915c5.032 0 7.633-2.84 7.803-8.517l6.732.357-1.224 14.535h-36.669v-5.355c3.026 0 4.54-.782 4.54-2.346v-22.491c0-1.564-1.514-2.346-4.54-2.346v-5.355h36.67v11.475zm42.812 26.775c-1.904 0-3.528-.247-4.87-.74-1.344-.493-2.449-1.156-3.316-1.989a7.386 7.386 0 0 1-1.887-2.932 10.771 10.771 0 0 1-.586-3.57v-2.805c0-1.19-.06-2.16-.179-2.907-.119-.748-.323-1.326-.612-1.734-.289-.408-.697-.68-1.224-.816-.527-.136-1.198-.204-2.014-.204h-4.03v9.639c0 1.564 1.888 2.346 5.662 2.346v5.355h-23.103v-5.355c3.026 0 4.539-.782 4.539-2.346v-22.491c0-1.564-1.513-2.346-4.54-2.346v-5.355h26.572a35.7 35.7 0 0 1 4.896.331c1.598.221 3.017.672 4.258 1.352a7.827 7.827 0 0 1 2.984 2.881c.748 1.241 1.122 2.882 1.122 4.922 0 1.326-.204 2.49-.612 3.493-.408 1.003-.944 1.862-1.607 2.576a8.31 8.31 0 0 1-2.27 1.734 10.81 10.81 0 0 1-2.651.969c1.836.476 3.247 1.36 4.233 2.652.986 1.292 1.479 3.247 1.479 5.865v3.519c0 .748.153 1.3.459 1.657.306.357.697.536 1.173.536.51 0 .918-.179 1.224-.536.306-.357.459-.91.459-1.657v-2.448h3.723v2.346a9.217 9.217 0 0 1-.536 3.162 6.438 6.438 0 0 1-1.683 2.55c-.765.714-1.725 1.283-2.881 1.708-1.156.425-2.55.638-4.182.638zm-18.717-22.797h4.64c.919 0 1.675-.085 2.27-.255.595-.17 1.071-.45 1.428-.842.357-.39.604-.918.74-1.58.136-.664.204-1.488.204-2.474 0-1.156-.323-2.057-.97-2.703-.645-.646-1.87-.97-3.671-.97h-4.641v8.824z" id="USER-Copy" fill="#FFF" transform="rotate(-7 154.787 145.767)"/><g id="Group-3" transform="translate(0 159)"><path id="Fill-73" fill="#850B24" d="M236.052 42.11l71.867 2.71v71.56l-71.867-12.467V42.11"/><path id="Fill-74" fill="#510716" d="M236.052 42.753l47.413-23.318-6.976 76.439-40.437 8.682V42.753"/><path id="Fill-75" fill="#9D0D2B" d="M276.461 95.874l-65.469-12.98V21.091l72.446-1.656-6.977 76.439"/><path id="Fill-76" fill="#510716" d="M210.992 82.726V20.923l59.13-18.77-6.696 62.14z"/><path id="Fill-77" fill="#850B24" d="M46.328 111.778L0 121.972v-53.48l52.431-17.475-6.103 60.761"/><path id="Fill-78" fill="#510716" d="M45.845 111.913l-33.719-9.034V49.398l39.823 1.755-6.104 60.76"/><path id="Fill-79" fill="#9D0D2B" d="M79.563 89.914l-67.437 12.9V49.332l73.54-20.18-6.103 60.762"/><path id="Fill-80" fill="#510716" d="M79.508 89.914l-31.004-5.846V30.587l37.105-1.434-6.101 60.761"/><path id="Fill-81" fill="#B81032" d="M48.504 84.094V30.613L269.926.416l-6.394 63.876z"/><path d="M69.678 54.607V28.158h17.33v2.31H72.28v9.723h12.42v2.16h-12.42v12.256h-2.603zm22.609 0V28.158h11.156c1.14 0 2.188.242 3.142.726a8.282 8.282 0 0 1 2.473 1.9 8.715 8.715 0 0 1 1.618 2.664c.384.993.576 1.999.576 3.017 0 .969-.142 1.894-.427 2.776a8.586 8.586 0 0 1-1.19 2.384 7.205 7.205 0 0 1-1.841 1.788 6.503 6.503 0 0 1-2.417.987l6.47 10.207h-2.937l-6.21-9.76h-7.81v9.76h-2.603zm2.603-12.07h8.627c.769 0 1.47-.167 2.101-.503a5.014 5.014 0 0 0 1.618-1.36 6.619 6.619 0 0 0 1.041-1.936c.248-.72.372-1.478.372-2.273 0-.794-.142-1.558-.427-2.29a6.327 6.327 0 0 0-1.153-1.92 5.503 5.503 0 0 0-1.71-1.303 4.622 4.622 0 0 0-2.065-.484H94.89v12.07zm22.385 12.07V28.158h2.603v26.45h-2.603zm27.666-2.31v2.31h-17.738V28.158h17.404v2.31h-14.801v9.536h12.904v2.198h-12.904v10.096h15.135zm8.217-19.296v21.606h-2.603V28.158h2.008l17.478 22.016V28.195h2.604v26.412h-2.269l-17.218-21.606zm26.81 21.606V28.158h8.963c2.108 0 3.948.348 5.523 1.043 1.574.695 2.888 1.64 3.942 2.831 1.053 1.192 1.847 2.59 2.38 4.191.533 1.602.8 3.31.8 5.122 0 2.012-.298 3.831-.893 5.458-.595 1.627-1.444 3.017-2.548 4.172-1.103 1.155-2.43 2.049-3.979 2.682-1.55.634-3.291.95-5.225.95h-8.962zm19.004-13.262c0-1.59-.223-3.048-.67-4.377-.446-1.329-1.096-2.477-1.952-3.446a8.744 8.744 0 0 0-3.142-2.253c-1.24-.534-2.665-.801-4.277-.801h-6.359v21.83h6.36c1.636 0 3.08-.28 4.332-.839 1.252-.558 2.3-1.328 3.142-2.31.843-.98 1.481-2.135 1.915-3.464.434-1.328.651-2.775.651-4.34zm8.291 13.262V28.158h2.603v24.14h15.247v2.31h-17.85zm18.035-26.449l8.627 14.23 8.702-14.23h2.827l-10.227 16.615v9.834h-2.603v-9.909l-10.19-16.54h2.864z" id="FRIENDLY" fill="#FFF" transform="rotate(-7 157.566 41.383)"/></g></g></g></g></svg>